<svg xmlns="http://www.w3.org/2000/svg" width="148" height="56" viewBox="0 0 148 56" fill="none">
<path fill-rule="evenodd" clip-rule="evenodd" d="M24.8838 4L14.4966 10.0137L4 16.0273V28.0547V39.9727L14.4966 45.9863L24.8838 52L35.2711 45.9863L45.6583 39.9727V28.0547V16.0273L35.2711 10.0137L24.8838 4Z" fill="#252525"/>
<path fill-rule="evenodd" clip-rule="evenodd" d="M8.59277 21.4943C8.59277 20.7289 9.24881 20.0729 10.0142 20.0729C10.7796 20.0729 11.4356 20.7289 11.4356 21.4943V27.9453V33.959L22.2602 27.7266C22.9162 27.2893 23.9003 27.5079 24.2283 28.2733C24.6657 28.9293 24.447 29.9134 23.6816 30.2414L10.7796 37.7858C10.5609 37.8952 10.3422 38.0045 10.0142 38.0045C9.24881 38.0045 8.59277 37.3485 8.59277 36.5831V28.0546V21.4943ZM33.4128 27.836L15.4812 39.5353C14.8251 39.9726 14.6064 40.8473 15.0438 41.5034C15.1531 41.7221 15.4812 41.9407 15.6998 42.0501L24.2283 46.4237C24.6657 46.6423 25.2124 46.6423 25.6497 46.4237L40.5199 37.8952C40.9572 37.6765 41.2853 37.1298 41.2853 36.5831V28.0546V19.5262C41.2853 18.7608 40.6292 18.1047 39.8638 18.1047C39.7545 18.1047 39.6452 18.1047 39.5358 18.1047L28.7112 20.4009L26.5244 10.6697C26.3058 9.90429 25.5404 9.35759 24.775 9.57627C24.6657 9.57627 24.447 9.68561 24.3376 9.79495L15.0438 15.1526C14.6064 15.3713 14.2784 15.918 14.2784 16.4647V25.7585C14.2784 26.5239 14.9345 27.1799 15.6998 27.1799C16.4652 27.1799 17.1212 26.5239 17.1212 25.7585V17.23L23.9003 13.2938L25.9777 22.4783C26.1964 23.2437 26.9618 23.7904 27.7272 23.5717L38.2238 21.3849V28.164V35.9271L24.775 43.6902L19.0894 40.8473L34.9436 30.5694C35.5996 30.1321 35.8183 29.2574 35.3809 28.6013C35.0529 27.6173 34.1782 27.3986 33.4128 27.836Z" fill="white"/>
</svg>