<svg xmlns="http://www.w3.org/2000/svg" width="59" height="44" viewBox="0 0 59 44" fill="none">
<rect width="59" height="44" rx="8" fill="white"/>
<path opacity="0.6" d="M19.2121 17.9832L19.5975 22.4216H29.2221V17.9832H19.2121ZM29.222 8.99994H18.4375L18.8285 13.4383H29.222V8.99994ZM29.222 34.1278V29.5101L29.2031 29.5152L24.4132 28.1806L24.107 24.6407H19.7896L20.3922 31.6096L29.2022 34.1335L29.222 34.1278Z" fill="#2565F2"/>
<path d="M34.524 22.4227L34.0243 28.1794L29.2227 29.5157V34.1335L38.0486 31.6116L38.1133 30.8617L39.125 19.176L39.23 17.984L40.0073 8.99994H29.2227V13.4387H35.2891L34.8974 17.984H29.2227V22.4227H34.524Z" fill="#2565F2"/>
</svg>