<svg xmlns="http://www.w3.org/2000/svg" width="28" height="27" viewBox="0 0 28 27" fill="none">
<g clip-path="url(#clip0_2097_2851)">
<path d="M14.0003 26.9504C13.6013 26.9504 13.2303 26.8502 12.8838 26.677L9.34999 24.7217C8.81916 24.4495 9.08516 24.3505 9.24499 24.301C9.96132 24.0782 10.0943 24.0287 10.8387 23.6316C10.918 23.5821 11.0253 23.6069 11.1047 23.6564L13.8148 25.1672C13.9198 25.2167 14.054 25.2167 14.1333 25.1672L24.7348 19.4477C24.8398 19.3982 24.8935 19.2992 24.8935 19.1755V7.76123C24.8935 7.63748 24.841 7.53848 24.7348 7.48898L14.1333 1.79535C14.0272 1.74585 13.8942 1.74585 13.8148 1.79535L3.21333 7.48898C3.10716 7.53848 3.05349 7.66223 3.05349 7.76123V19.1755C3.05349 19.2745 3.10716 19.3982 3.21333 19.4477L6.10899 21.0081C7.67699 21.7506 8.65933 20.8844 8.65933 20.0181V8.75235C8.65933 8.60385 8.79233 8.45535 8.97899 8.45535H10.3335C10.4933 8.45535 10.652 8.5791 10.652 8.75235V20.017C10.652 21.9734 9.50982 23.1119 7.51716 23.1119C6.90583 23.1119 6.42749 23.1119 5.07299 22.4931L2.28349 21.0081C1.94736 20.8299 1.66666 20.5683 1.47038 20.2505C1.2741 19.9327 1.16937 19.5701 1.16699 19.2002V7.78597C1.16699 7.04347 1.59166 6.35047 2.28349 5.97922L12.885 0.258598C13.2301 0.0879194 13.6124 -0.00109863 14.0003 -0.00109863C14.3882 -0.00109863 14.7705 0.0879194 15.1157 0.258598L25.7183 5.9781C26.409 6.34935 26.8337 7.04235 26.8337 7.78485V19.1991C26.8337 19.9416 26.409 20.6346 25.7183 21.007L15.1168 26.7254C14.7644 26.8727 14.3844 26.9485 14.0003 26.9481M17.2682 19.099C12.619 19.099 11.6623 17.119 11.6623 15.4349C11.6623 15.2864 11.7953 15.1379 11.9808 15.1379H13.3622C13.522 15.1379 13.6538 15.2369 13.6538 15.3854C13.8673 16.6971 14.4787 17.3406 17.295 17.3406C19.5268 17.3406 20.4835 16.8704 20.4835 15.7566C20.4835 15.1131 20.2175 14.6429 16.7373 14.3211C13.8405 14.0477 12.0345 13.4549 12.0345 11.3005C12.0345 9.2946 13.8405 8.10548 16.8703 8.10548C20.2712 8.10548 21.9453 9.1956 22.1577 11.5727C22.1553 11.6532 22.1272 11.731 22.0772 11.7955C22.0247 11.845 21.9453 11.8945 21.8648 11.8945H20.4835C20.4164 11.8929 20.3516 11.8703 20.299 11.8301C20.2464 11.79 20.2088 11.7344 20.1918 11.6717C19.8722 10.3105 19.0485 9.86385 16.8703 9.86385C14.425 9.86385 14.1333 10.6559 14.1333 11.251C14.1333 11.9687 14.4787 12.1915 17.7733 12.5875C21.0412 12.9835 22.5823 13.5527 22.5823 15.6812C22.5555 17.8615 20.6433 19.099 17.2682 19.099Z" fill="#69A063"/>
</g>
<defs>
<clipPath id="clip0_2097_2851">
<rect width="28" height="27" fill="white"/>
</clipPath>
</defs>
</svg>