<svg xmlns="http://www.w3.org/2000/svg" width="32" height="32" viewBox="0 0 32 32" fill="none">
  <path d="M11.404 3.35985C10.559 3.30285 9.728 3.45485 9 3.87485C8.029 4.43485 7.382 5.39185 7.035 6.49485C6.688 7.59485 6.608 8.86485 6.735 10.2518C6.747 10.3918 6.772 10.5388 6.789 10.6818C6.657 10.7378 6.517 10.7898 6.389 10.8498C5.125 11.4328 4.066 12.1368 3.285 12.9878C2.505 13.8398 2 14.8778 2 15.9998C2 17.1208 2.505 18.1598 3.285 19.0118C4.065 19.8628 5.125 20.5668 6.389 21.1498C6.517 21.2098 6.657 21.2618 6.789 21.3178C6.772 21.4608 6.747 21.6078 6.734 21.7478C6.608 23.1348 6.688 24.4038 7.035 25.5058C7.382 26.6078 8.029 27.5638 9 28.1248C9.971 28.6848 11.122 28.7678 12.25 28.5178C13.378 28.2678 14.517 27.7008 15.654 26.8978C15.769 26.8178 15.884 26.7228 16 26.6368C16.115 26.7228 16.23 26.8168 16.346 26.8978C17.483 27.7008 18.622 28.2678 19.75 28.5178C20.878 28.7678 22.029 28.6858 23 28.1248C23.971 27.5648 24.618 26.6078 24.965 25.5048C25.312 24.4048 25.392 23.1348 25.265 21.7478C25.253 21.6078 25.228 21.4608 25.211 21.3178C25.343 21.2618 25.483 21.2098 25.611 21.1498C26.875 20.5668 27.934 19.8628 28.715 19.0118C29.495 18.1598 30 17.1218 30 15.9998C30 14.8788 29.495 13.8398 28.715 12.9878C27.935 12.1368 26.875 11.4328 25.611 10.8498C25.483 10.7898 25.343 10.7378 25.211 10.6818C25.228 10.5388 25.253 10.3918 25.266 10.2518C25.392 8.86485 25.312 7.59585 24.965 6.49385C24.618 5.39185 23.971 4.43585 23 3.87485C22.029 3.31485 20.878 3.23185 19.75 3.48185C18.622 3.73185 17.483 4.29885 16.346 5.10185C16.231 5.18185 16.116 5.27685 16 5.36285C15.885 5.27685 15.77 5.18285 15.654 5.10185C14.517 4.29885 13.378 3.73185 12.25 3.48185C11.9715 3.41945 11.6887 3.37933 11.404 3.35985ZM11.274 5.35185C11.444 5.36385 11.625 5.39185 11.818 5.43585C12.574 5.60285 13.479 6.02685 14.434 6.69085C13.5955 7.48895 12.8183 8.34905 12.109 9.26385C10.9638 9.42003 9.83194 9.66205 8.723 9.98785C8.625 8.82985 8.709 7.83385 8.941 7.09585C9.18 6.33985 9.536 5.87585 10 5.60685C10.348 5.40685 10.762 5.31285 11.273 5.35185H11.274ZM20.727 5.35185C21.237 5.31285 21.652 5.40685 22 5.60685C22.464 5.87485 22.82 6.33985 23.059 7.09585C23.291 7.83385 23.375 8.82985 23.277 9.98785C22.1681 9.66205 21.0362 9.42003 19.891 9.26385C19.1817 8.34905 18.4045 7.48895 17.566 6.69085C18.521 6.02685 19.426 5.60285 20.182 5.43585C20.375 5.39285 20.556 5.36385 20.727 5.35185ZM16 7.95885C16.351 8.28385 16.702 8.64485 17.053 9.02285C16.7022 9.00894 16.3511 9.00127 16 8.99985C15.645 8.99985 15.296 9.01085 14.947 9.02285C15.297 8.64485 15.649 8.28385 16 7.95885ZM16 10.9998C16.965 10.9998 17.9 11.0568 18.799 11.1518C19.3505 11.9069 19.8615 12.6907 20.33 13.4998C20.812 14.3348 21.23 15.1728 21.598 15.9998C21.2198 16.855 20.7965 17.6895 20.33 18.4998C19.8615 19.309 19.3505 20.0928 18.799 20.8478C17.899 20.9428 16.965 20.9998 16 20.9998C15.035 20.9998 14.1 20.9428 13.201 20.8478C12.6495 20.0928 12.1385 19.309 11.67 18.4998C11.188 17.6648 10.77 16.8268 10.402 15.9998C10.769 15.1728 11.188 14.3348 11.67 13.4998C12.152 12.6648 12.669 11.8828 13.201 11.1518C14.1307 11.0518 15.065 11.001 16 10.9998ZM10.484 11.5998C10.299 11.8948 10.115 12.1918 9.938 12.4998C9.76387 12.8048 9.59518 13.1129 9.432 13.4238C9.282 12.9477 9.15024 12.466 9.037 11.9798C9.494 11.8388 9.982 11.7138 10.484 11.5998ZM21.516 11.5998C22.018 11.7138 22.506 11.8388 22.963 11.9798C22.857 12.4468 22.72 12.9318 22.568 13.4238C22.4048 13.1129 22.2361 12.8048 22.062 12.4998C21.8853 12.1966 21.7033 11.8966 21.516 11.5998ZM7.154 12.7028C7.41 13.7678 7.763 14.8728 8.221 15.9998C7.78313 17.0705 7.42646 18.1726 7.154 19.2968C6.103 18.8018 5.282 18.2298 4.76 17.6598C4.225 17.0758 4 16.5358 4 15.9998C4 15.4638 4.225 14.9238 4.76 14.3398C5.282 13.7698 6.103 13.1978 7.154 12.7028ZM24.846 12.7028C25.897 13.1978 26.718 13.7698 27.24 14.3398C27.775 14.9238 28 15.4638 28 15.9998C28 16.5358 27.775 17.0758 27.24 17.6598C26.718 18.2298 25.897 18.8018 24.846 19.2968C24.5735 18.1726 24.2169 17.0705 23.779 15.9998C24.2166 14.9291 24.5732 13.827 24.846 12.7028ZM16 12.9998C14.355 12.9998 13 14.3548 13 15.9998C13 17.6448 14.355 18.9998 16 18.9998C17.645 18.9998 19 17.6448 19 15.9998C19 14.3548 17.645 12.9998 16 12.9998ZM16 14.9998C16.564 14.9998 17 15.4358 17 15.9998C17 16.5638 16.564 16.9998 16 16.9998C15.436 16.9998 15 16.5638 15 15.9998C15 15.4358 15.436 14.9998 16 14.9998ZM9.432 18.5758C9.595 18.8838 9.76 19.1918 9.937 19.4998C10.115 19.8078 10.299 20.1048 10.484 20.3998C9.982 20.2858 9.494 20.1608 9.037 20.0198C9.143 19.5528 9.28 19.0678 9.432 18.5758ZM22.568 18.5758C22.72 19.0678 22.858 19.5528 22.963 20.0198C22.506 20.1608 22.018 20.2858 21.516 20.3998C21.701 20.1048 21.885 19.8078 22.063 19.4998C22.24 19.1918 22.405 18.8838 22.568 18.5758ZM8.723 22.0118C9.773 22.3218 10.906 22.5698 12.109 22.7358C12.8187 23.6504 13.5958 24.5104 14.434 25.3088C13.479 25.9728 12.574 26.3968 11.818 26.5638C11.045 26.7358 10.464 26.6598 10 26.3928C9.536 26.1248 9.18 25.6598 8.941 24.9038C8.709 24.1658 8.625 23.1698 8.723 22.0118ZM23.277 22.0118C23.375 23.1698 23.291 24.1658 23.059 24.9038C22.82 25.6598 22.464 26.1238 22 26.3928C21.536 26.6598 20.955 26.7358 20.182 26.5638C19.426 26.3968 18.521 25.9728 17.566 25.3088C18.4045 24.5107 19.1817 23.6506 19.891 22.7358C21.0362 22.5797 22.1681 22.3376 23.277 22.0118ZM14.947 22.9768C15.296 22.9888 15.645 22.9998 16 22.9998C16.355 22.9998 16.704 22.9888 17.053 22.9768C16.703 23.3548 16.351 23.7158 16 24.0408C15.6356 23.6997 15.2843 23.3448 14.947 22.9768Z" fill="#0A7A9F"/>
</svg>