<svg width="244" height="178" viewBox="0 0 244 178" fill="none" xmlns="http://www.w3.org/2000/svg">
<path fill-rule="evenodd" clip-rule="evenodd" d="M22.3997 0H234.944V161.883H22.3997V0ZM234.362 0.582314H22.982V161.301H234.362V0.582314Z" fill="white"/>
<path d="M234.653 0.291016H22.6908V14.9071H234.653V0.291016Z" fill="white"/>
<path d="M31.7748 10.5398C33.3828 10.5398 34.6864 9.23626 34.6864 7.62825C34.6864 6.02023 33.3828 4.71667 31.7748 4.71667C30.1668 4.71667 28.8632 6.02023 28.8632 7.62825C28.8632 9.23626 30.1668 10.5398 31.7748 10.5398Z" fill="#1D1D1B"/>
<path fill-rule="evenodd" clip-rule="evenodd" d="M39.9855 5.03688C38.5543 5.03688 37.3942 6.19706 37.3942 7.62819C37.3942 9.05933 38.5543 10.2195 39.9855 10.2195C41.4166 10.2195 42.5768 9.05933 42.5768 7.62819C42.5768 6.19706 41.4166 5.03688 39.9855 5.03688ZM37.103 7.62819C37.103 6.03625 38.3935 4.74573 39.9855 4.74573C41.5774 4.74573 42.8679 6.03625 42.8679 7.62819C42.8679 9.22013 41.5774 10.5106 39.9855 10.5106C38.3935 10.5106 37.103 9.22013 37.103 7.62819Z" fill="#1D1D1B"/>
<path fill-rule="evenodd" clip-rule="evenodd" d="M34.3954 21.9531H86.4543V30.3967H34.3954V21.9531ZM34.9778 22.5354V29.8144H85.872V22.5354H34.9778Z" fill="white"/>
<path fill-rule="evenodd" clip-rule="evenodd" d="M89.133 21.9531H222.599V30.3967H89.133V21.9531ZM89.7153 22.5354V29.8144H222.017V22.5354H89.7153Z" fill="white"/>
<path fill-rule="evenodd" clip-rule="evenodd" d="M32.1827 33.483H225.162V153.673H32.1827V33.483ZM32.765 34.0653V153.09H224.579V34.0653H32.765Z" fill="white"/>
<path d="M35.4025 39.032H85.855V88.7275H35.4025V39.032Z" stroke="white" stroke-width="0.5"/>
<path d="M35.4025 93.8278H85.855V135.72H35.4025V93.8278Z" stroke="white" stroke-width="0.5"/>
<path d="M89.6742 39.032H175.881V66.8907H89.6742V39.032Z" stroke="white" stroke-width="0.5"/>
<path d="M179.642 39.032H220.894V79.7016H179.642V39.032Z" stroke="white" stroke-width="0.5"/>
<path d="M89.6742 72.4568H175.881V113.068H89.6742V72.4568Z" stroke="white" stroke-width="0.5"/>
<path d="M179.642 82.4727H220.894V135.72H179.642V82.4727Z" stroke="white" stroke-width="0.5"/>
<path d="M81.4464 44.9548H39.4033V47.8082H81.4464V44.9548Z" fill="#161616"/>
<path d="M81.4464 51.5348H39.4033V54.3881H81.4464V51.5348Z" fill="#161616"/>
<path d="M81.4464 58.115H39.4033V60.9683H81.4464V58.115Z" fill="#161616"/>
<path d="M81.4464 64.6952H39.4033V67.5485H81.4464V64.6952Z" fill="#161616"/>
<path fill-rule="evenodd" clip-rule="evenodd" d="M90.7634 40.2379H174.617V66.4421H90.7634V40.2379ZM91.3457 40.8202V65.8597H174.034V40.8202H91.3457Z" fill="#161616"/>
<path d="M123.722 43.4407H93.1509V63.1229H123.722V43.4407Z" fill="#161616"/>
<path d="M151.266 43.4407H126.75V63.1229H151.266V43.4407Z" fill="#161616"/>
<path fill-rule="evenodd" clip-rule="evenodd" d="M90.7634 73.6046H174.617V112.445H90.7634V73.6046ZM91.3457 74.1869V111.863H174.034V74.1869H91.3457Z" fill="#161616"/>
<path d="M218.349 87.7549H182.303V90.6082H218.349V87.7549Z" fill="#161616"/>
<path d="M218.349 94.3348H182.303V97.1882H218.349V94.3348Z" fill="#161616"/>
<path d="M218.349 100.915H182.303V103.768H218.349V100.915Z" fill="#161616"/>
<path d="M218.349 107.495H182.303V110.349H218.349V107.495Z" fill="#161616"/>
<path d="M208.391 114.075H182.303V116.929H208.391V114.075Z" fill="#161616"/>
<path d="M243.854 86.2408H127.216V177.315H243.854V86.2408Z" fill="#161616"/>
<path fill-rule="evenodd" clip-rule="evenodd" d="M127.682 86.4736H243.97V177.431H127.682V86.4736ZM128.265 87.0559V176.849H243.388V87.0559H128.265Z" fill="white"/>
<path d="M243.679 86.7649H127.973V94.9755H243.679V86.7649Z" fill="white"/>
<path d="M132.923 92.5298C133.791 92.5298 134.495 91.7998 134.495 90.8993C134.495 89.9988 133.791 89.2688 132.923 89.2688C132.055 89.2688 131.351 89.9988 131.351 90.8993C131.351 91.7998 132.055 92.5298 132.923 92.5298Z" fill="#1D1D1B"/>
<path fill-rule="evenodd" clip-rule="evenodd" d="M137.407 89.4726C136.656 89.4726 136.038 90.1061 136.038 90.8992C136.038 91.6924 136.656 92.3259 137.407 92.3259C138.157 92.3259 138.775 91.6924 138.775 90.8992C138.775 90.1061 138.157 89.4726 137.407 89.4726ZM135.747 90.8992C135.747 89.9557 136.485 89.1814 137.407 89.1814C138.329 89.1814 139.066 89.9557 139.066 90.8992C139.066 91.8427 138.329 92.617 137.407 92.617C136.485 92.617 135.747 91.8427 135.747 90.8992Z" fill="#1D1D1B"/>
<path d="M200.996 118.035H137.523V121.063H200.996V118.035Z" fill="white"/>
<path fill-rule="evenodd" clip-rule="evenodd" d="M202.422 117.89H217.679V121.209H202.422V117.89ZM202.713 118.181V120.918H217.388V118.181H202.713Z" fill="white"/>
<path fill-rule="evenodd" clip-rule="evenodd" d="M219.368 117.89H234.624V121.209H219.368V117.89ZM219.659 118.181V120.918H234.333V118.181H219.659Z" fill="white"/>
<path d="M142.822 109.475V110.989L137.407 108.66V107.379L142.822 105.05V106.564L139.037 108.019L142.822 109.475Z" fill="white"/>
<path d="M146.2 104.933L144.686 111.164C144.627 111.397 144.569 111.513 144.569 111.63C144.511 111.746 144.453 111.863 144.395 111.921C144.336 111.979 144.22 112.037 144.045 112.037C143.696 112.037 143.521 111.863 143.521 111.572C143.521 111.513 143.579 111.28 143.638 110.931L145.152 104.7C145.21 104.351 145.326 104.118 145.385 104.001C145.443 103.885 145.617 103.827 145.792 103.827C145.967 103.827 146.083 103.885 146.2 103.943C146.316 104.001 146.316 104.176 146.316 104.293C146.316 104.467 146.258 104.642 146.2 104.933Z" fill="white"/>
<path d="M152.372 108.66L146.957 111.047V109.533L150.742 108.019L146.957 106.564V105.05L152.372 107.379V108.66Z" fill="white"/>
<path fill-rule="evenodd" clip-rule="evenodd" d="M137.261 125.576H152.518V128.895H137.261V125.576ZM137.552 125.867V128.604H152.227V125.867H137.552Z" fill="white"/>
<path d="M185.797 125.722H154.935V128.75H185.797V125.722Z" fill="white"/>
<path d="M225.511 125.722H187.253V128.75H225.511V125.722Z" fill="white"/>
<path fill-rule="evenodd" clip-rule="evenodd" d="M226.821 125.576H234.566V128.895H226.821V125.576ZM227.112 125.867V128.604H234.275V125.867H227.112Z" fill="white"/>
<path d="M177.004 133.408H137.523V136.436H177.004V133.408Z" fill="white"/>
<path d="M160.641 141.095H137.523V144.123H160.641V141.095Z" fill="white"/>
<path fill-rule="evenodd" clip-rule="evenodd" d="M137.378 148.636H157.642V151.955H137.378V148.636ZM137.669 148.927V151.664H157.351V148.927H137.669Z" fill="white"/>
<path d="M184.807 148.781H159.651V151.809H184.807V148.781Z" fill="white"/>
<path fill-rule="evenodd" clip-rule="evenodd" d="M162.534 140.949H197.822V144.268H162.534V140.949ZM162.825 141.24V143.977H197.531V141.24H162.825Z" fill="white"/>
<path d="M222.134 141.095H199.016V144.123H222.134V141.095Z" fill="white"/>
<path fill-rule="evenodd" clip-rule="evenodd" d="M223.327 140.949H234.566V144.268H223.327V140.949ZM223.618 141.24V143.977H234.275V141.24H223.618Z" fill="white"/>
<path d="M234.479 133.408H211.361V136.436H234.479V133.408Z" fill="white"/>
<path fill-rule="evenodd" clip-rule="evenodd" d="M178.198 133.263H209.643V136.582H178.198V133.263ZM178.489 133.554V136.291H209.352V133.554H178.489Z" fill="white"/>
<path d="M18.2071 104.351C15.1208 105.224 12.7916 106.447 11.2193 107.379C9.58883 108.369 8.4242 109.301 7.84189 109.766C6.96842 110.523 5.62909 111.63 4.348 113.26C3.88215 113.843 1.90228 116.463 0.795885 120.539C0.0971074 123.16 0.0971069 125.314 0.0971069 126.828C0.0971069 127.41 0.0971056 128.575 0.330031 130.73C0.795883 134.806 1.61112 138.009 1.96051 139.406C2.42636 141.211 3.64923 145.346 5.97848 150.237C6.85195 152.101 7.66719 153.44 7.90012 153.848C8.94828 155.711 10.5205 158.39 13.0827 161.301C14.4803 162.873 15.6449 163.98 16.4601 164.737C18.6729 166.775 20.5363 168.056 21.7592 168.988C23.6808 170.327 25.3113 171.492 27.6406 172.715C28.9799 173.413 31.8332 174.753 35.7347 175.743C37.5399 176.208 40.2186 176.733 43.5378 176.907C45.0518 176.965 46.1582 176.965 48.3127 176.849C51.2243 176.733 53.8447 176.558 56.1157 176.325C56.1157 176.383 56.1157 176.441 56.1157 176.5C60.1337 176.5 64.1517 176.5 68.1114 176.558C68.4608 176.5 68.752 176.267 68.8684 175.917C68.9849 175.568 68.8102 175.16 68.519 174.927C67.2379 174.287 65.8986 173.646 64.6175 172.947C64.3264 172.831 64.0935 172.656 63.8023 172.54C64.6175 172.016 65.6075 171.259 66.5974 170.152C67.995 168.638 68.8102 167.183 69.3343 166.076C70.3242 167.94 71.3724 169.803 72.3623 171.666C73.7016 171.142 75.0992 170.56 76.4385 170.036C76.6132 170.211 76.7879 170.385 77.0208 170.502C76.555 171.841 76.1474 173.122 75.6815 174.461C79.2919 175.51 82.844 176.616 86.4543 177.664C86.9784 177.781 87.5025 177.548 87.7354 177.082C87.9101 176.674 87.8519 176.208 87.5607 175.859C85.115 173.297 82.7275 170.735 80.2818 168.114C81.2717 167.59 82.2034 167.008 83.1934 166.484C80.6312 163.398 77.7778 159.496 75.1574 154.721C73.294 151.402 71.8965 148.199 70.7901 145.346C70.9648 144.938 71.2559 144.239 71.2559 143.308C71.2559 142.784 71.1977 142.318 71.0812 141.968C71.023 141.561 70.8483 141.211 70.7318 140.92C69.6254 138.882 67.0633 138.533 66.5974 138.416C67.5291 138.416 68.519 138.416 69.4507 138.416C69.5672 138.416 70.1495 138.416 70.5571 137.95C70.7901 137.717 70.9065 137.426 70.9648 137.252C72.8282 131.894 74.6916 126.537 76.6132 121.18C76.6132 121.063 76.6714 120.772 76.4967 120.481C76.2056 120.015 75.6815 119.957 75.6233 119.957C70.9648 119.957 66.3645 119.957 61.706 119.957C61.5895 119.957 61.4148 120.015 61.2401 120.19C60.949 120.364 60.8325 120.656 60.8325 120.772C59.6096 124.208 58.5615 127.818 57.3968 131.254C54.5435 131.079 51.5155 131.312 48.7204 130.671C48.5457 130.613 48.3127 130.555 48.0798 130.439C47.0899 130.089 46.5076 129.274 45.5176 127.527C45.0518 126.653 44.4112 125.489 43.8289 124.324C44.353 124.091 45.11 123.858 45.7506 123.451C46.0999 123.218 46.4493 122.985 46.7405 122.752C46.1582 121.063 45.4012 119.142 44.2365 117.045C43.0719 114.891 41.849 113.144 40.6844 111.746C40.5679 111.746 40.4515 111.746 40.335 111.746C40.2768 111.63 40.2186 111.455 40.1603 111.397C40.1021 111.339 40.0439 111.222 39.9856 111.047C39.9856 110.989 39.9274 110.873 39.8692 110.756C39.8692 110.756 39.8109 110.582 39.7527 110.407C39.6945 110.174 39.6362 109.883 39.6945 109.592C39.7527 109.301 39.9274 109.126 39.9856 109.068C40.1603 108.893 40.3933 108.835 40.6844 108.66C41.7908 108.078 42.082 107.961 42.3731 107.728C42.7225 107.495 43.0137 107.321 43.2466 107.146C43.7125 106.797 44.5277 106.214 45.0518 105.632C45.2847 105.399 46.4493 104.06 46.2164 102.487C46.0417 101.323 45.1682 100.566 44.353 99.8088C43.7707 99.343 43.2466 98.9936 42.3731 98.4695C41.6161 98.0619 41.0338 97.7125 40.568 97.5378C40.335 97.3631 40.2186 97.0719 40.335 96.839C40.3933 96.6643 40.568 96.5479 40.6262 96.4896C40.7426 96.3732 40.9756 96.2567 41.2667 96.082C41.4997 95.9655 41.6161 95.9073 41.7326 95.8491C42.1402 95.6161 42.5478 95.2085 42.7225 94.6844C42.8972 94.2186 42.839 93.8692 42.7807 93.4616C42.7807 93.3451 42.6643 92.821 42.3149 92.1805C42.3149 92.1805 41.9073 91.4817 41.2667 90.8994C39.0539 88.9778 34.803 88.8613 34.803 88.8613C31.3092 88.7448 28.6887 89.8512 27.2912 90.4335C27.2912 90.4335 22.2251 92.5299 18.6147 97.2466C18.2653 97.7125 17.4501 98.8189 17.1007 100.333C16.8095 101.439 16.926 102.022 16.926 102.255C17.2754 103.303 17.8577 104.001 18.2071 104.351Z" fill="#161616"/>
<path d="M18.3817 104.292C17.9741 104.409 17.3335 104.584 16.6348 104.817C15.0043 105.341 13.8397 105.981 13.1409 106.331C12.0345 106.913 11.2775 107.379 10.8116 107.67C10.2875 108.019 9.4723 108.543 8.42414 109.359C7.95829 109.766 7.20128 110.349 6.26958 111.222C5.68726 111.804 5.22141 112.328 5.04671 112.503C4.23147 113.435 3.64916 114.25 3.41623 114.658C2.83392 115.531 2.48453 116.288 2.25161 116.754C2.13514 116.929 1.84399 117.627 1.43637 118.617C1.20344 119.2 0.85405 120.131 0.621124 121.354C0.329967 122.694 0.271738 123.742 0.213506 124.499C0.155275 125.314 0.155273 125.955 0.155273 127.119C0.155273 128.575 0.213505 129.681 0.271737 130.205C0.329968 130.73 0.329969 131.195 0.3882 131.778C0.504663 132.942 0.737587 133.874 0.912282 134.806C1.37813 136.902 1.61106 137.95 1.96045 139.29C2.36807 140.804 2.83392 142.492 3.59093 144.647C4.34794 146.685 5.04671 148.141 5.74549 149.655C6.73543 151.693 7.78359 153.847 9.4723 156.526C10.2293 157.749 11.3357 159.379 13.0244 161.359C14.9461 163.63 16.9842 165.435 18.3817 166.484C18.5564 166.6 18.9058 166.891 19.8957 167.648C21.5262 168.871 21.6427 168.988 22.1085 169.279C22.8073 169.803 23.4478 170.269 24.3796 170.851C25.3113 171.433 26.1265 171.899 26.7088 172.249C27.524 172.714 28.2228 173.064 28.6304 173.238C28.8634 173.355 29.3875 173.588 30.028 173.879C31.3673 174.403 32.3573 174.753 33.5219 175.102C33.8713 175.218 34.6865 175.451 35.8511 175.742C36.6081 175.975 37.3069 176.092 38.1804 176.267C38.9956 176.441 39.5779 176.499 40.102 176.558C40.5096 176.616 41.3249 176.732 42.3731 176.791C42.6642 176.791 43.4212 176.849 44.3529 176.907C44.5859 176.907 45.2264 176.965 46.0416 176.965C46.2163 176.965 46.9151 176.965 47.7886 176.965C48.6038 176.965 49.2444 176.907 49.7102 176.849C50.2343 176.791 50.7584 176.791 51.5154 176.732C52.7965 176.616 53.7864 176.499 54.2523 176.441C54.8928 176.325 55.4751 176.267 55.941 176.15C56.1157 174.753 56.2904 173.355 56.5233 172.016C56.4651 170.967 56.4651 169.919 56.4068 168.929C55.5916 168.696 54.6599 168.347 53.7282 167.881C52.7383 167.415 51.8648 166.949 51.1078 166.484C52.0977 163.048 53.4953 159.146 55.5916 155.012C56.4068 153.44 57.2221 151.984 58.0955 150.586C47.7886 151.576 40.0438 151.984 37.3652 151.868C35.7347 151.809 34.046 151.46 34.046 151.46C32.7649 151.169 31.542 150.936 30.2027 150.179C29.0963 149.538 28.2811 148.781 27.6405 148.141C26.8835 147.151 25.8353 145.462 25.4859 143.133C25.3695 142.376 25.3695 141.677 25.4277 141.095C25.5442 140.396 25.6024 139.755 25.7189 139.057C24.7872 139.115 23.9137 139.173 22.982 139.29C22.2832 136.436 21.6427 133.583 20.9439 130.671C19.954 130.671 18.5564 130.613 16.9842 130.147C15.5284 129.74 14.3637 129.099 13.5485 128.633C12.9662 128.226 11.7433 127.236 10.9863 125.489C10.404 124.208 10.3458 123.043 10.3458 122.344C10.3458 121.82 10.3458 121.005 10.5205 120.015C10.9281 117.278 12.1509 115.356 12.7915 114.367C12.9662 114.075 13.8397 112.736 15.3537 111.28C16.1107 110.581 16.7512 109.999 17.3335 109.65C17.8576 109.359 18.207 109.009 18.4982 108.776C18.7311 108.543 18.9058 108.31 18.964 108.252C19.1387 108.019 19.3134 107.786 19.4299 107.379C19.4881 107.262 19.5463 106.971 19.5463 106.622C19.5463 106.039 19.2552 105.632 19.0223 105.341C18.9058 105.166 18.6729 104.875 18.3817 104.584" fill="white"/>
<path d="M65.9568 159.612L65.7238 160.137L63.9769 169.104L63.8022 170.211L60.5995 169.919L60.7742 171.375L63.6857 172.598L63.9769 172.482L64.7921 171.783L66.772 169.978L67.8784 168.464L68.9266 166.891L69.3924 166.076L65.9568 159.612Z" fill="white"/>
<path d="M20.711 125.256V126.886L24.3213 132.884L25.6024 133.117L21.4098 125.023L28.4558 126.653L28.9216 127.003L33.1143 133.932C36.5499 133.932 40.0438 133.932 43.4795 133.932C43.1883 132.826 42.8972 131.661 42.6643 130.438C42.2566 128.4 42.0237 126.537 41.849 124.79C41.9655 124.557 42.0237 124.324 42.1402 124.091L40.9173 116.172L39.578 115.764L20.711 125.256Z" fill="white"/>
<path d="M60.5994 169.919C60.7159 170.385 60.8324 170.909 60.8906 171.375L60.8323 171.259C61.4729 171.492 62.1134 171.783 62.754 172.016C63.3945 172.307 64.0351 172.598 64.6174 172.947C63.2781 172.54 61.997 172.074 60.7159 171.492L60.6577 171.433C60.6577 170.968 60.5994 170.444 60.5994 169.919Z" fill="white"/>
<path d="M80.107 168.172L85.0567 173.413L87.5024 175.975C88.2012 176.732 87.4442 177.897 86.5125 177.606L75.9726 174.461L77.3119 170.56C78.1272 171.2 79.2918 171.957 80.7476 172.54C82.3781 173.18 84.0668 173.413 85.1149 173.53" fill="white"/>
<path d="M80.1069 168.172C82.5527 170.56 85.1731 173.238 87.6188 175.742C88.3758 176.383 87.9682 177.781 86.92 177.897C86.6289 177.955 86.3377 177.839 86.0465 177.781L84.5908 177.373C82.7273 176.849 77.7777 175.335 75.856 174.753L75.6231 174.694C76.089 173.297 76.613 171.899 77.0789 170.56L77.1954 170.269C78.36 171.2 79.6411 172.016 81.0386 172.54C82.3197 173.064 83.7173 173.355 85.1148 173.588C82.2615 173.471 79.4082 172.54 77.1371 170.793L77.4865 170.676C77.0789 172.016 76.613 173.297 76.2054 174.578L76.0307 174.228C77.9524 174.811 82.902 176.267 84.7654 176.849L86.2212 177.315C86.3959 177.373 86.6871 177.489 86.8618 177.431C87.2112 177.373 87.5606 177.024 87.5023 176.616C87.5023 176.441 87.3859 176.267 87.2112 176.092L86.163 174.985C84.1831 172.773 82.0286 170.385 80.1069 168.172Z" fill="white"/>
<path d="M76.5548 169.978C76.9042 170.036 77.1954 170.211 77.3118 170.56C76.9624 170.502 76.6713 170.327 76.5548 169.978Z" fill="white"/>
<path d="M56.5815 168.93L56.8727 172.132L56.3486 176.442H67.9949C68.7519 176.442 69.043 175.393 68.3442 175.044L64.7921 173.064C63.9187 173.297 62.4046 173.588 60.5995 173.355C59.0272 173.181 57.8626 172.656 57.0473 172.249" fill="white"/>
<path d="M56.5815 168.93C56.698 169.978 56.8727 171.084 56.9891 172.132C56.8727 173.588 56.698 175.044 56.5233 176.5L56.2904 176.267C59.9589 176.208 63.6857 176.208 67.3543 176.208C67.5873 176.208 68.1113 176.267 68.2278 176.092C68.519 175.801 68.4025 175.335 67.9949 175.219C67.1214 174.753 65.4909 173.821 64.6175 173.297H64.7921C62.1717 173.937 59.3766 173.588 57.0474 172.249C59.4349 173.355 62.1717 173.588 64.6757 172.831C64.7339 172.831 64.7339 172.773 64.8504 172.831L66.772 173.879C67.0632 174.054 67.9366 174.52 68.2278 174.694C68.9266 174.927 69.2177 175.917 68.5772 176.441C68.2278 176.733 67.7037 176.674 67.3543 176.674H65.1415C62.1135 176.616 59.0855 176.674 56.0574 176.616C56.2904 175.102 56.465 173.588 56.698 172.074C56.698 171.142 56.6397 169.919 56.5815 168.93Z" fill="#161616"/>
<path d="M18.2652 104.292C13.6067 105.574 9.29755 108.252 5.86189 111.688C2.42624 115.182 0.562833 119.898 0.213445 124.79C-0.252407 136.32 4.63903 149.48 11.2192 158.855C14.0143 162.815 17.7993 166.018 21.7008 168.871C29.3874 174.927 39.345 177.489 49.0696 176.907C51.5153 176.791 53.9028 176.558 56.3485 176.15C53.9611 176.616 51.5153 176.849 49.0696 176.965C39.345 177.664 29.3292 175.102 21.5844 169.046C17.6829 166.192 13.8396 162.99 11.0445 158.972C4.34788 149.655 -0.485334 136.262 0.0387486 124.732C0.388137 119.84 2.30978 115.065 5.74543 111.571C9.23932 108.136 13.6067 105.515 18.2652 104.292Z" fill="white"/>
<path d="M63.7439 172.656C65.9567 170.735 67.8201 168.58 69.3923 166.076C68.2277 168.755 66.1896 171.026 63.7439 172.656Z" fill="white"/>
<path d="M52.7965 136.961V137.078C52.7381 137.078 52.7381 136.961 52.7965 136.961C52.7381 136.961 52.7381 136.961 52.7965 136.961C52.7381 136.961 52.7381 136.902 52.7965 136.961C52.7965 136.902 52.7965 136.844 52.7965 136.844V136.961Z" fill="white"/>
<path d="M47.4392 133.874C45.5758 132.768 43.8288 131.37 42.4313 129.623C44.0618 131.021 45.8087 132.477 47.4392 133.874Z" fill="white"/>
<path d="M5.80363 111.63C4.81369 122.053 6.85179 132.593 10.6368 142.259C15.3536 154.08 24.7288 162.64 37.8309 163.223C43.0717 163.456 48.2543 162.466 53.1458 160.602C48.3126 162.524 43.0717 163.572 37.8309 163.339C24.6706 162.815 15.0624 154.255 10.4039 142.318C6.6771 132.651 4.639 122.053 5.80363 111.63Z" fill="#161616"/>
<path d="M50.9912 136.96C51.69 136.786 52.447 136.727 53.1458 136.96C52.3888 137.135 51.69 137.135 50.9912 136.96Z" fill="white"/>
<path d="M65.5491 138.358C70.0912 139.231 72.7698 141.561 70.3823 146.277C69.5088 148.374 68.6936 150.47 67.9948 152.625C66.0732 158.39 64.6756 164.329 63.9769 170.385C59.5513 170.211 55.1257 168.871 51.3406 166.542L51.2824 166.484V166.425C52.7964 160.311 55.3586 154.372 59.2019 149.305L60.8324 147.151L59.2601 149.364C56.5815 152.974 54.6016 157.108 53.0294 161.301C52.447 162.99 51.923 164.737 51.5153 166.484L51.4571 166.367C55.1839 168.638 59.493 169.978 63.8604 170.152L63.6857 170.269C64.4427 164.271 65.8403 158.331 67.8201 152.625C68.5771 150.47 69.3924 148.374 70.2659 146.277C72.5951 141.619 70.0329 139.348 65.5491 138.358Z" fill="white"/>
<path d="M25.8935 139.057C25.0783 142.958 26.3011 147.442 29.7368 149.655C31.4255 150.703 33.4054 151.227 35.3852 151.518C37.3651 151.809 39.4032 151.868 41.3831 151.751C47.0315 151.402 52.68 150.82 58.3866 150.528C52.7382 150.936 47.0315 151.693 41.4413 151.984C36.6663 152.217 30.4938 151.926 27.4657 147.733C25.6023 145.288 25.1947 141.968 25.8935 139.057Z" fill="white"/>
<path d="M65.9568 159.612C67.5873 162.582 70.9065 168.638 72.4787 171.666L72.3622 171.608C73.8763 170.909 76.2637 169.919 77.7195 169.221C79.4665 168.347 81.2134 167.415 82.9021 166.425L82.8439 166.658C77.7195 160.253 73.5269 153.032 70.6153 145.404C73.7598 152.974 77.8942 160.136 83.0768 166.484L83.1933 166.6L83.0186 166.658C79.6994 168.638 75.9726 170.327 72.4205 171.783L72.3622 171.841L72.304 171.783C70.7318 168.755 67.529 162.64 65.9568 159.612Z" fill="white"/>
<path d="M28.805 122.403C28.805 123.917 28.805 125.372 28.805 126.886C25.6023 126.712 22.3414 126.595 19.1386 126.421C19.0804 123.8 19.3133 120.073 20.7109 115.939C21.3514 114.134 22.0502 112.62 22.8072 111.339L27.4075 110.407C29.3874 113.784 32.4154 114.949 33.9294 114.075C35.0358 113.435 35.2687 111.804 35.327 111.164L40.6843 111.921C41.383 112.794 42.14 113.843 42.8388 114.949C44.644 117.744 45.8086 120.481 46.5656 122.752C46.158 123.101 45.6339 123.567 44.9352 123.917C43.6541 124.615 42.4312 124.79 41.6742 124.848C41.616 123.451 41.4413 121.878 41.0919 120.131C40.859 118.792 40.5096 117.628 40.2184 116.579" fill="white"/>
<path d="M28.805 122.402L28.8633 126.886V126.944H28.805L19.1386 126.537H19.0804C18.9057 121.296 20.1286 115.764 22.8072 111.28L27.4075 110.349H27.5239L27.5822 110.407C29.2127 113.551 34.8029 116.812 35.2687 111.164V111.047H35.3852L40.7425 111.804H40.8007C43.4211 115.065 45.401 118.792 46.6821 122.752C45.3428 124.033 43.5376 124.79 41.6742 124.906H41.616V124.848C41.4995 122.053 41.0336 119.258 40.2184 116.579C41.0336 119.258 41.5577 122.053 41.7324 124.848L41.6742 124.79C43.4794 124.673 45.2263 123.916 46.5074 122.694V122.752C45.1681 118.85 43.1882 115.182 40.626 111.979C41.0919 112.095 35.2105 111.222 35.327 111.28L35.4434 111.164C35.327 113.435 33.9876 115.123 31.5419 114.308C29.6785 113.668 28.2227 112.154 27.2328 110.523L27.3493 110.581L22.749 111.513C20.4779 115.648 18.8475 121.354 19.1386 126.479L19.0804 126.42C19.0804 126.42 28.8633 126.886 28.6886 126.944C28.7468 126.886 28.805 122.402 28.805 122.402Z" fill="#161616"/>
<path d="M42.9553 137.659C43.5959 137.601 44.2364 137.543 44.877 137.485C44.8187 137.426 44.8187 137.31 44.7605 137.252" fill="white"/>
<path d="M43.4794 133.874C42.3148 131.079 41.9072 127.993 41.9654 124.965C42.3148 127.993 42.7224 130.962 43.4794 133.874Z" fill="#161616"/>
<path d="M29.562 138.766C28.3391 138.882 27.1163 138.94 25.8934 139.057C24.9617 139.115 24.0882 139.231 23.1565 139.29C22.4578 137.368 21.8172 135.039 21.3514 132.418C20.9437 130.264 20.769 128.284 20.7108 126.537" fill="white"/>
<path d="M29.5621 138.766C27.4075 138.999 25.3112 139.231 23.1566 139.406H23.0401L22.9819 139.29C21.5261 135.213 20.7109 130.846 20.6526 126.479C20.9438 130.788 21.8173 135.097 23.2148 139.231L23.0984 139.173C25.3112 138.999 27.4075 138.882 29.5621 138.766Z" fill="#161616"/>
<path d="M29.3874 102.895C29.5039 104.351 29.5039 105.748 29.4456 107.204C29.5039 108.66 29.2709 110.465 27.4658 110.64C29.1545 110.232 29.1545 108.602 29.1545 107.204C29.2127 105.748 29.2709 104.293 29.3874 102.895Z" fill="white"/>
<path d="M34.1042 107.204C34.0459 108.369 33.3472 111.63 35.327 111.28C35.1523 111.397 34.9194 111.455 34.6865 111.397C33.1725 110.931 33.6383 108.311 34.1042 107.204Z" fill="white"/>
<path d="M28.4557 99.7505C28.0481 99.867 27.757 100.158 27.524 100.508C27.3493 100.857 27.2911 101.265 27.4076 101.672C27.524 102.08 27.8152 102.371 28.1646 102.546C28.514 102.72 28.9216 102.779 29.3292 102.72C29.7368 103.477 30.2609 104.176 30.785 104.817C31.3673 105.457 32.0079 106.04 32.7066 106.447C33.4636 106.855 34.2789 107.088 35.1524 106.971C35.9676 106.797 36.6664 106.272 37.2487 105.632C38.2969 104.293 38.6462 102.546 38.7045 100.857C38.8209 99.1682 38.6462 97.4213 38.2969 95.7325L38.3551 95.7908C37.2487 95.2667 35.9676 95.1502 34.803 95.5579L34.8612 95.4996C34.6283 96.1984 34.2789 96.8972 33.8713 97.4795C33.4636 98.12 33.056 98.7606 32.5319 99.2264C32.2408 99.4594 31.9496 99.6923 31.6002 99.8087C31.2509 99.9834 30.9015 100.1 30.5521 100.1C30.2027 100.1 29.7951 100.042 29.4457 99.867C29.2127 99.8088 28.8051 99.6341 28.4557 99.7505ZM28.4557 99.7505C28.8051 99.6341 29.2127 99.8088 29.5039 99.9835C29.8533 100.158 30.2027 100.216 30.6103 100.216C30.9597 100.216 31.3091 100.042 31.6585 99.9252C32.0079 99.7505 32.299 99.5758 32.5902 99.3429C33.1143 98.8188 33.5219 98.1783 33.9295 97.596C34.3371 96.9554 34.6283 96.3149 34.8612 95.6161H34.9194C36.0841 95.2085 37.4234 95.2667 38.588 95.7908H38.6462V95.849C38.9956 97.5377 39.1703 99.2847 39.1121 101.032C39.0539 101.905 38.9374 102.779 38.7045 103.594C38.4715 104.409 38.1222 105.283 37.5398 105.923C36.9575 106.564 36.2005 107.146 35.327 107.321C34.4536 107.437 33.5219 107.204 32.7649 106.738C32.0079 106.272 31.3673 105.69 30.8432 104.991C30.2609 104.351 29.7951 103.594 29.3874 102.837C28.9798 102.895 28.5722 102.837 28.2228 102.662C27.8734 102.487 27.5823 102.138 27.4658 101.789C27.3493 101.381 27.4076 100.973 27.5823 100.624C27.757 100.1 28.0481 99.8087 28.4557 99.7505Z" fill="white"/>
<path d="M40.4514 111.804C39.9856 110.931 39.1121 109.359 40.335 108.776C42.7807 107.437 46.0999 105.923 46.2746 102.72C46.0416 100.624 43.7706 99.4593 42.1401 98.4111C41.5578 97.9453 40.4514 97.8288 40.2767 97.0136C40.2767 96.6642 40.5679 96.4895 40.7426 96.3148C41.2084 96.0236 41.6743 95.849 42.0819 95.4996C42.9554 94.859 42.9554 93.6944 42.4895 92.7627C41.2084 89.7346 37.4816 89.1523 34.57 89.0941C30.3774 88.9776 26.3594 90.7828 23.0985 93.2868C20.6527 95.2084 18.1488 97.4794 17.3335 100.566C17.0424 101.614 17.2171 102.72 17.8576 103.594C18.4399 104.467 19.5463 105.108 19.7793 106.272C19.954 107.437 19.1387 108.485 18.2652 109.184C13.1409 112.561 8.88999 119.316 11.2775 125.547C12.7915 129.274 17.1588 130.555 20.8857 130.671C17.1588 130.671 12.7333 129.332 11.161 125.605C8.71529 119.316 12.9662 112.503 18.1488 109.009C18.9058 108.369 19.721 107.379 19.5463 106.331C19.3134 105.224 18.2652 104.642 17.6829 103.768C16.9842 102.837 16.8677 101.614 17.1588 100.566C17.9741 97.4212 20.5363 95.0337 22.982 93.1121C26.3012 90.6081 30.3774 88.7447 34.6283 88.9194C38.0639 88.9194 43.0136 90.1423 43.0718 94.3349C43.0136 95.4996 41.7907 96.0236 40.9173 96.5477C40.6843 96.6642 40.5097 96.8389 40.5097 97.0718C40.7426 97.7706 41.7325 97.9453 42.3148 98.3529C43.9453 99.4011 46.3328 100.624 46.5075 102.778C46.3328 106.039 42.9554 107.553 40.4514 108.893C39.1121 109.417 39.9856 110.931 40.4514 111.804Z" fill="white"/>
<path d="M43.887 124.324C44.4693 125.605 45.1681 126.886 45.9251 128.051C46.4492 128.924 47.0315 129.856 47.9632 130.322C49.5937 130.904 51.4571 130.846 53.1458 130.963C54.5434 131.021 55.9992 131.079 57.3967 131.196C55.9992 131.196 54.5434 131.196 53.1458 131.196C51.7483 131.137 50.2925 131.079 48.8949 130.904C48.1962 130.788 47.4391 130.439 46.9733 129.914C45.5757 128.342 44.7023 126.304 43.887 124.324Z" fill="white"/>
<path d="M58.0955 134.34C55.8245 134.398 53.6117 134.223 51.3989 133.874C53.6699 133.816 55.8827 133.991 58.0955 134.34Z" fill="white"/>
<path d="M49.3608 136.96C49.3608 136.96 48.1961 136.611 48.2544 136.611C44.1782 137.543 40.2184 138.416 36.084 139.29L34.3371 139.639C32.5901 140.105 30.6685 139.755 29.2127 138.707C28.2228 138.008 27.4657 137.019 26.9999 135.97L25.3694 132.884L22.1667 126.653L25.5441 132.826L27.2328 135.912C27.7569 136.96 28.4557 137.892 29.3874 138.533C30.7849 139.522 32.6483 139.814 34.3371 139.406L36.084 139.057C40.1602 138.183 44.1782 137.426 48.2544 136.611C48.1961 136.553 49.3025 136.96 49.3608 136.96Z" fill="white"/>
<path d="M52.7963 136.96L55.0674 136.902L55.0091 136.96V136.495C53.7863 135.679 51.7482 134.224 50.7582 133.408C50.7582 133.408 47.4973 133.991 47.4391 133.991C43.8869 133.991 36.6662 133.991 33.1141 133.991H33.0559L32.9977 133.932C31.6001 131.545 30.2025 129.157 28.805 126.77C30.1443 128.983 32.066 131.778 33.1141 133.758C36.6662 133.758 44.0034 133.699 47.4391 133.758L50.7582 133.234C52.2723 134.224 53.6698 135.446 55.1838 136.495V136.96V137.019H55.1256L52.7963 136.96Z" fill="white"/>
<path d="M55.475 136.96H55.0674H52.7382H52.2141H50.933H49.3025H46.3327H45.5757C45.5757 137.019 45.5757 137.077 45.5757 137.135C45.6339 137.484 45.7504 137.776 45.9833 138.008C46.2162 138.241 46.6238 138.416 46.9732 138.416H54.8927H55.9991" fill="white"/>
<path d="M55.475 136.96C52.1558 137.077 48.8949 137.077 45.5757 137.077L45.6922 136.96C45.6922 137.368 45.9251 137.776 46.2745 138.009C46.6821 138.3 47.0897 138.241 47.5556 138.241H50.4089C52.2723 138.241 54.1939 138.3 56.0574 138.358C54.1939 138.416 52.2723 138.474 50.4089 138.474H47.5556C46.5074 138.591 45.401 138.125 45.401 136.902V136.786H45.5175C48.8949 136.844 52.1558 136.844 55.475 136.96Z" fill="#161616"/>
<path d="M61.9387 120.248H75.7978C76.3801 120.248 76.7878 120.83 76.6131 121.354L71.0229 137.368C70.7899 137.95 70.2658 138.358 69.6253 138.358H55.1257L61.2982 120.714C61.2982 120.481 61.5894 120.248 61.9387 120.248Z" fill="white"/>
<path d="M61.9388 120.248C62.6958 120.248 75.4485 120.19 75.6232 120.19C76.1473 120.131 76.7296 120.597 76.6714 121.18C76.3802 122.169 76.0308 123.101 75.6814 124.091C74.6915 126.944 72.7116 132.768 71.7217 135.621L71.1976 137.077C71.0812 137.543 70.79 138.125 70.3242 138.358C69.9165 138.649 69.2178 138.533 68.7519 138.533C68.5772 138.533 55.7663 138.474 55.0675 138.474H54.951L55.0093 138.358C56.5233 134.107 59.202 126.362 60.716 122.169L61.1236 121.005C61.24 120.655 61.473 120.248 61.9388 120.248ZM61.9388 120.248C61.473 120.248 61.24 120.655 61.1236 121.005L60.716 122.169L59.9007 124.499C58.9108 127.469 56.1739 135.33 55.1257 138.416L55.0675 138.3C55.8245 138.3 68.5772 138.241 68.7519 138.241C69.1595 138.183 69.8001 138.3 70.2077 138.067C70.6735 137.834 70.8482 137.426 70.9647 136.96L71.4888 135.504C72.4787 132.651 74.575 126.886 75.565 124.033C75.9144 123.101 76.2638 122.111 76.5549 121.18C76.6131 120.714 76.1473 120.248 75.6232 120.306C75.5067 120.306 62.6376 120.248 61.9388 120.248Z" fill="#161616"/>
<path fill-rule="evenodd" clip-rule="evenodd" d="M36.846 100.144C36.8861 100.146 36.9165 100.181 36.9138 100.221C36.8568 101.075 37.1416 101.928 37.7661 102.552C37.9319 102.718 37.9676 102.938 37.8991 103.117C37.8305 103.298 37.6589 103.433 37.4249 103.434L35.9123 103.492C35.8721 103.493 35.8383 103.462 35.8367 103.422C35.8352 103.382 35.8665 103.348 35.9067 103.346L37.4235 103.288C37.5964 103.288 37.7154 103.191 37.7631 103.066C37.8111 102.94 37.7886 102.781 37.6632 102.655C37.0066 101.999 36.709 101.104 36.7685 100.212C36.7712 100.171 36.8059 100.141 36.846 100.144Z" fill="white"/>
</svg>
