<svg viewBox="0 0 171 172" fill="none" xmlns="http://www.w3.org/2000/svg">
<path d="M17.6411 84.8975V87.3093L21.251 88.2281L24.8609 88.9938L28.6807 89.6829L32.5425 90.2189L34.1795 90.4103V87.7687C31.4511 87.6156 28.3029 87.3093 24.8609 86.6585C22.2164 86.1225 19.7818 85.51 17.6411 84.8975Z" fill="white"/>
<path d="M26.4615 92.6154L30.1368 93.1242L32.8319 93.3423L34.1795 93.415V95.923L29.6467 95.3778L26.4615 94.8689V92.6154Z" fill="white"/>
<path d="M13.2308 92.6154V95.4035C15.8795 96.4541 18.9295 97.4643 22.3407 98.3533C26.715 99.4443 30.7282 100.05 34.1795 100.333C34.1795 99.4039 34.1795 98.4745 34.1795 97.5451C30.969 97.3835 27.1163 96.8986 22.8624 95.848C19.1301 94.959 15.8795 93.7468 13.2308 92.6154Z" fill="white"/>
<path d="M16.5385 68.359H14.3453L14.0577 70.2748L13.4824 71.4868L13.2308 72.0342L14.8127 73.8718L15.9273 71.8778L16.4306 70.2357L16.5385 68.359Z" fill="white"/>
<path d="M3.30768 69.4615H5.67568V68.3998L6.12673 66.5213L7.02883 65.0104L8.34439 63.9487L9.58478 63.5812L9.92306 63.4587V60.641C9.92306 60.641 7.85576 61.0494 7.81817 61.0902C7.74299 61.131 6.01397 62.2744 6.01397 62.2744L4.99911 63.4178L4.36012 64.4795L3.72114 66.113L3.38285 67.7872L3.30768 69.4615Z" fill="white"/>
<path d="M126.795 69.4615H122.385V73.8718H126.795V69.4615Z" fill="white"/>
<path d="M119.077 58.4359H114.667V71.6667H119.077V58.4359Z" fill="white"/>
<path d="M134.513 100.817C134.513 100.7 147.484 91.174 147.484 91.174L155.646 93.818L159.431 89.3077L165.385 91.7961V96.9285L161.797 98.4449L158.682 99.6502L154.621 101.011L151.191 101.983L147.958 102.761L145.04 103.383L140.19 104.16L134.513 104.744V100.817Z" fill="white"/>
<path fill-rule="evenodd" clip-rule="evenodd" d="M74.9946 64.1404C75.0023 64.2542 74.9211 64.3529 74.8134 64.361C72.383 64.5442 69.9524 64.7575 67.5158 64.9713L67.415 64.9801C64.9451 65.1968 62.4689 65.4137 59.9827 65.5995L59.9298 65.6035V75.1778C59.9298 76.7518 61.1649 77.9767 62.6546 77.8617L62.6581 77.8615C63.3607 77.8203 64.0539 77.7688 64.7487 77.7172L64.7494 77.7171C65.4435 77.6656 66.1393 77.6139 66.845 77.5725C74.3602 77.1183 82.1501 76.7879 90.2146 76.7052C95.7735 76.6227 101.176 76.664 106.499 76.7878C108.966 76.8292 111.393 76.9118 113.818 76.9943L113.822 76.9944L113.826 76.9947C114.115 77.0151 114.406 77.0253 114.7 77.0356L114.701 77.0357C114.994 77.046 115.29 77.0564 115.587 77.0772C115.694 77.0848 115.776 77.1832 115.769 77.2969C115.762 77.4107 115.668 77.4967 115.561 77.4892C115.271 77.4688 114.981 77.4586 114.687 77.4482L114.685 77.4482C114.394 77.4379 114.099 77.4275 113.803 77.4068C111.378 77.3243 108.954 77.2418 106.492 77.2006L106.491 77.2006C101.171 77.0768 95.7735 77.0355 90.2197 77.118L90.2188 77.1181C82.1617 77.2006 74.3779 77.5307 66.8671 77.9847C66.1644 78.0259 65.4709 78.0774 64.7761 78.129L64.7754 78.1291C64.0819 78.1806 63.3867 78.2322 62.6815 78.2736C60.9632 78.4052 59.5385 76.9884 59.5385 75.1778V64.9358L60.0085 65.1838C62.4739 64.999 64.93 64.7839 67.3826 64.5687L67.4844 64.5598C69.9203 64.346 72.3528 64.1326 74.7855 63.9493C74.8933 63.9411 74.9869 64.0267 74.9946 64.1404Z" fill="white"/>
<path fill-rule="evenodd" clip-rule="evenodd" d="M92.1974 31.9744L92.1996 31.9744L92.2052 31.9744H98.7004C99.4898 31.9744 100.269 31.9845 101.042 31.9945L101.056 31.9947C101.825 32.0047 102.587 32.0147 103.349 32.0147H103.353C103.9 32.0147 104.455 32.0147 105.011 32.055C105.439 32.055 105.915 32.055 106.355 32.0955L110.959 32.2162C117.737 32.4177 124.28 32.7402 130.625 33.1835C132.188 33.2707 133.41 34.6091 133.41 36.2051V68.1575C133.41 68.2688 133.322 68.359 133.213 68.359C133.104 68.359 133.016 68.2688 133.016 68.1575V36.2051C133.016 34.82 131.954 33.6605 130.602 33.5858L130.6 33.5856C124.259 33.1426 117.722 32.8204 110.948 32.619C110.948 32.619 110.948 32.619 110.948 32.619L106.332 32.4979L106.326 32.4974C105.903 32.458 105.439 32.4579 105.004 32.4579H104.997L104.99 32.4574C104.447 32.4177 103.902 32.4176 103.349 32.4176C102.585 32.4176 101.82 32.4076 101.052 32.3976L101.037 32.3974C100.264 32.3874 99.4869 32.3773 98.7004 32.3773H92.2007C81.7641 32.4982 71.8004 32.9009 62.3094 33.5454L62.3029 33.5458H62.2963C61.9515 33.5458 61.6349 33.6488 61.3431 33.7952C61.3106 33.8219 61.2806 33.8372 61.2643 33.8455C61.2634 33.846 61.2624 33.8464 61.2616 33.8469C61.2558 33.8498 61.2523 33.8517 61.2504 33.8528C61.2088 33.8942 61.1666 33.9156 61.1461 33.9261C61.1452 33.9266 61.1442 33.927 61.1434 33.9275C61.1376 33.9304 61.1341 33.9323 61.1322 33.9334C61.1128 33.9527 61.0925 33.9687 61.0763 33.9807C61.0595 33.9932 61.0419 34.0053 61.028 34.0147L61.0267 34.0156C61.0112 34.0262 60.9999 34.0339 60.9902 34.0412C60.9821 34.0472 60.9786 34.0503 60.9779 34.0509C60.9778 34.051 60.9778 34.051 60.9779 34.0509C60.9576 34.0717 60.9358 34.0889 60.9187 34.1016C60.9019 34.1141 60.8843 34.1261 60.8704 34.1356L60.8691 34.1365C60.8536 34.1471 60.8423 34.1548 60.8326 34.162C60.8245 34.168 60.821 34.1711 60.8203 34.1718C60.8202 34.1719 60.8202 34.1719 60.8203 34.1718L60.8149 34.1772L60.8092 34.1823C60.2942 34.6337 59.97 35.2273 59.9324 35.9285V52.0806C59.9324 52.1919 59.8442 52.2821 59.7354 52.2821C59.6266 52.2821 59.5385 52.1919 59.5385 52.0806V35.9178L59.5387 35.9125C59.5812 35.087 59.9638 34.3946 60.5481 33.8805C60.5665 33.8625 60.5855 33.8475 60.6008 33.8362C60.6177 33.8236 60.6353 33.8116 60.6492 33.8022L60.6505 33.8012C60.666 33.7907 60.6773 33.7829 60.687 33.7757C60.6951 33.7697 60.6986 33.7666 60.6993 33.766C60.6994 33.7659 60.6994 33.7659 60.6993 33.766C60.7196 33.7452 60.7414 33.728 60.7584 33.7153C60.7753 33.7028 60.7929 33.6907 60.8068 33.6813L60.8081 33.6804C60.8236 33.6698 60.8349 33.6621 60.8446 33.6548C60.8527 33.6488 60.8562 33.6457 60.8569 33.6451C60.857 33.645 60.857 33.645 60.8569 33.6451C60.8995 33.6015 60.9434 33.5792 60.9645 33.5685C60.9654 33.568 60.9663 33.5675 60.9672 33.5671C60.973 33.5641 60.9765 33.5622 60.9784 33.5612C61.02 33.5198 61.0622 33.4983 61.0827 33.4879C61.0836 33.4874 61.0845 33.4869 61.0854 33.4865C61.0911 33.4836 61.0946 33.4817 61.0965 33.4806L61.1159 33.4608L61.1445 33.4462C61.4751 33.2771 61.8581 33.1442 62.2896 33.1429C71.7864 32.4982 81.7557 32.0953 92.1974 31.9744Z" fill="white"/>
<path fill-rule="evenodd" clip-rule="evenodd" d="M72.7681 51.8865C72.7764 51.9289 72.7389 51.9685 72.6844 51.975L61.6954 53.279C61.677 53.2822 61.6573 53.2855 61.6365 53.289C61.2465 53.3549 60.4413 53.491 59.7052 54.0058C59.6642 54.0344 59.601 54.0319 59.5641 54C59.5272 53.9681 59.5305 53.919 59.5715 53.8903C60.3479 53.3474 61.1983 53.204 61.5919 53.1376C61.6146 53.1338 61.6357 53.1302 61.6553 53.1269L61.6586 53.1263L72.6542 51.8215C72.7087 51.815 72.7597 51.8441 72.7681 51.8865Z" fill="white"/>
<path d="M59.5385 40.7949C70.5836 40.1868 82.2226 39.8067 94.3762 39.7687C108.074 39.7307 121.098 40.1108 133.41 40.7949V36.8043C133.41 35.4361 132.302 34.2959 130.877 34.1819C119.792 33.3838 107.836 33.0417 95.0888 33.0797C83.4498 33.1178 72.4838 33.4218 62.2305 34.1439C60.7261 34.2579 59.578 35.4361 59.578 36.8803L59.5385 40.7949Z" fill="white"/>
<path d="M62.8462 44.7989C70.0157 44.4507 77.3403 44.2331 84.8974 44.1025V46.5398C77.3016 46.6704 69.977 46.975 62.8462 47.4102V44.7989Z" fill="white"/>
<path d="M73.317 51.2913C73.0772 51.2913 72.8374 51.2913 72.6376 51.3354C69.3205 51.4677 66.0434 51.6441 62.8462 51.8205V49.1303C68.9608 48.8656 75.2353 48.6451 81.5897 48.5128V50.0564" fill="white"/>
<path fill-rule="evenodd" clip-rule="evenodd" d="M122.385 52.9231H126.795V73.8718H122.385V52.9231ZM122.786 53.3118V73.4832H126.394V53.3118H122.786Z" fill="white"/>
<path fill-rule="evenodd" clip-rule="evenodd" d="M115.769 44.3046C115.769 44.193 115.86 44.1025 115.971 44.1025H119.077V71.4646C119.077 71.5762 118.987 71.6666 118.875 71.6666C118.764 71.6666 118.674 71.5762 118.674 71.4646V44.5067H115.971C115.86 44.5067 115.769 44.4162 115.769 44.3046Z" fill="white"/>
<path fill-rule="evenodd" clip-rule="evenodd" d="M114.864 50.7179C114.972 50.7179 115.06 50.8063 115.06 50.9155V73.4766H117.777C117.886 73.4766 117.974 73.5651 117.974 73.6742C117.974 73.7833 117.886 73.8717 117.777 73.8717H114.667V50.9155C114.667 50.8063 114.755 50.7179 114.864 50.7179Z" fill="white"/>
<path fill-rule="evenodd" clip-rule="evenodd" d="M111.135 56.2307C111.259 56.2307 111.359 56.3209 111.359 56.4321V73.8717H108.275C108.151 73.8717 108.051 73.7816 108.051 73.6704C108.051 73.5591 108.151 73.469 108.275 73.469H110.912V56.4321C110.912 56.3209 111.012 56.2307 111.135 56.2307Z" fill="white"/>
<path d="M43.7856 125.565L39.914 130.405L38.596 138.913C38.5548 139.264 38.7196 139.654 39.0079 139.849C39.4609 140.161 40.1199 140.044 40.4494 139.615L49.3459 127.166C49.7989 126.502 49.6754 125.604 49.0164 125.136L48.275 124.59L43.7856 125.565Z" fill="white"/>
<path fill-rule="evenodd" clip-rule="evenodd" d="M38.6292 126.802C38.6618 126.783 38.6994 126.804 38.713 126.848L39.6873 129.983C39.701 130.027 39.6856 130.078 39.6529 130.096C39.6202 130.114 39.5827 130.094 39.569 130.05L38.5947 126.914C38.5811 126.87 38.5965 126.82 38.6292 126.802Z" fill="white"/>
<path d="M78.5467 154.359L73.0351 162.349L71.6761 170.899C71.6383 171.179 71.7138 171.498 71.9026 171.698C72.2801 172.137 72.9974 172.097 73.2994 171.578L81.3402 158.674C81.7555 158.035 81.6423 157.196 81.076 156.676L78.5467 154.359Z" fill="white"/>
<path fill-rule="evenodd" clip-rule="evenodd" d="M77.4643 153.272C77.561 153.229 77.6717 153.279 77.7115 153.383L78.282 154.882L72.6869 163.179L71.7369 162.347C71.6556 162.276 71.643 162.147 71.7088 162.059C71.7746 161.971 71.8939 161.958 71.9751 162.029L72.6157 162.59L77.8511 154.826L77.3613 153.539C77.3215 153.435 77.3676 153.315 77.4643 153.272Z" fill="white"/>
<path fill-rule="evenodd" clip-rule="evenodd" d="M43 86.9807C45.7809 85.9831 48.8854 85.7032 51.9111 86.3423L51.9127 86.3427L60.5132 88.2349L61.1507 88.3611L83.7273 104.395L87.1026 106.788L86.8895 107.139L86.8886 107.141L77.4127 123.105C77.4124 123.106 77.4121 123.106 77.4118 123.107C76.699 124.362 76.0677 125.652 75.5949 126.978C74.4493 130.185 74.0148 133.548 74.2913 136.912L74.2914 136.913C74.4493 138.945 74.8835 140.938 75.594 142.853L75.5942 142.854L79.0548 152.256L78.7165 152.734L78.7154 152.736L78.1188 153.563L78.118 153.564L72.1453 161.961L72.1448 161.962L70.5087 164.282L57.4016 145.755L57.4011 145.754C55.6734 143.288 54.5079 140.582 53.905 137.757L53.9048 137.756C53.1012 133.898 53.3421 129.84 54.708 126.02C54.9103 125.42 55.1525 124.861 55.4324 124.267C55.4325 124.267 55.4327 124.266 55.4328 124.266L64.3926 104.829L64.3931 104.828L66.1449 100.965L66.5083 101.126L64.7559 104.991L64.7554 104.992L55.7944 124.431L55.7937 124.433C55.5165 125.021 55.281 125.565 55.0853 126.147L55.0841 126.15C53.7425 129.901 53.5055 133.886 54.2947 137.676C54.8866 140.45 56.0309 143.106 57.728 145.529C57.7281 145.529 57.7282 145.53 57.7284 145.53L62.3875 152.114L70.5081 163.594L71.8187 161.735L71.8192 161.735L77.7932 153.336L77.7939 153.335L78.3902 152.508L78.3913 152.507L78.6096 152.198L75.2202 142.989C74.4969 141.04 74.055 139.011 73.8943 136.943C73.6133 133.525 74.055 130.106 75.2193 126.847C75.7021 125.492 76.3449 124.18 77.0655 122.912L77.0674 122.909L86.5462 106.939L86.5471 106.938L86.5721 106.896L83.4954 104.715L60.9883 88.7311L60.4289 88.6203L51.828 86.7279C51.8277 86.7279 51.8274 86.7278 51.8271 86.7278C48.8791 86.1053 45.8506 86.3775 43.1357 87.3514L43 86.9807Z" fill="white"/>
<path fill-rule="evenodd" clip-rule="evenodd" d="M53.1611 102.741C53.7154 102.902 54.2321 103.064 54.7892 103.266C56.0188 103.711 57.1302 104.195 58.1626 104.721C60.1483 105.731 61.6965 106.822 62.8462 107.71L62.6079 108.03C61.4707 107.151 59.9435 106.076 57.9863 105.08C56.9685 104.562 55.872 104.083 54.6571 103.645L54.6568 103.644C54.1101 103.446 53.6018 103.287 53.0524 103.127L53.0515 103.126C50.709 102.434 48.3244 103.742 47.4536 105.859C47.2243 106.443 47.0758 107.054 47.1131 107.738L47.1133 107.742L47.1134 107.746C47.1527 109.988 47.2707 112.428 47.6241 115.025L47.6242 115.026C48.0959 118.546 48.8033 121.666 49.5889 124.305L49.6477 124.502L49.4483 124.557C49.019 124.677 48.5792 124.799 48.0988 124.881C47.9675 124.912 47.8355 124.944 47.703 124.976C46.9988 125.145 46.2809 125.318 45.5904 125.519L45.5871 125.52C45.3199 125.592 45.0527 125.657 44.7922 125.719C44.7612 125.727 44.7303 125.734 44.6996 125.742C44.4087 125.812 44.1268 125.881 43.8556 125.96L43.8524 125.961L43.8492 125.962C42.1145 126.403 40.3394 126.845 38.6032 127.247L36.0453 127.897L35.9994 127.697C35.7237 126.495 35.4472 125.289 35.2101 124.082C34.7371 121.795 34.2636 119.506 33.8295 117.136C33.2744 114.15 33.0769 110.927 33.0769 107.669C33.0769 107.11 33.0866 106.552 33.0964 105.991L33.0967 105.975C33.1065 105.408 33.1164 104.838 33.1164 104.258H33.5106C33.5106 104.842 33.5008 105.416 33.4909 105.982L33.4907 105.996C33.4809 106.559 33.4712 107.114 33.4712 107.669C33.4712 110.912 33.668 114.109 34.2169 117.062L34.217 117.063C34.6502 119.428 35.1229 121.713 35.5961 124L35.5965 124.002C35.8194 125.137 36.0775 126.271 36.3383 127.409L38.5138 126.856C40.2456 126.455 42.0172 126.014 43.7505 125.573C44.0302 125.492 44.319 125.421 44.6086 125.351C44.6394 125.344 44.6703 125.336 44.7012 125.329C44.9618 125.266 45.2228 125.203 45.4838 125.132C46.1833 124.929 46.911 124.754 47.6145 124.585C47.7487 124.553 47.882 124.521 48.014 124.489L48.0206 124.487L48.0273 124.486C48.4198 124.419 48.7853 124.324 49.1531 124.223C48.3851 121.607 47.6964 118.535 47.2335 115.08C46.8774 112.462 46.7588 110.007 46.7192 107.757C46.6785 106.998 46.845 106.327 47.0881 105.708L47.0892 105.706C48.0325 103.41 50.6151 101.989 53.1611 102.741Z" fill="white"/>
<path fill-rule="evenodd" clip-rule="evenodd" d="M43.0374 50.7398C43.0804 50.7053 43.1431 50.7123 43.1775 50.7554C43.9726 51.7506 44.8875 52.7862 45.9222 53.8621C47.2764 55.2579 48.7887 56.7323 50.4994 58.1664C54.0412 61.1549 57.4237 63.2668 60.2485 64.7409C60.2487 64.741 60.249 64.7411 60.2492 64.7413L60.4621 64.8478C62.9439 64.6491 65.2975 64.4701 67.6509 64.2911C70.013 64.1115 72.3753 63.9319 74.8667 63.7323C74.9216 63.7279 74.9696 63.7689 74.974 63.8238C74.9784 63.8787 74.9375 63.9268 74.8826 63.9312C72.3906 64.1309 70.0282 64.3105 67.6661 64.4902C65.3039 64.6698 62.9419 64.8494 60.4503 65.049L60.4226 65.0512L60.1571 64.9183C57.3208 63.4383 53.9258 61.3185 50.3713 58.3193C48.6535 56.8792 47.1359 55.3996 45.7791 54.001L45.7788 54.0007C44.7404 52.921 43.8214 51.8808 43.0218 50.88C42.9875 50.837 42.9944 50.7742 43.0374 50.7398Z" fill="white"/>
<path fill-rule="evenodd" clip-rule="evenodd" d="M45.2138 46.3623C45.2364 46.316 45.296 46.2951 45.3468 46.3157L59.0489 51.8631L61.1579 52.7337L72.6542 51.2313C72.7093 51.2241 72.7603 51.259 72.7682 51.3092C72.7761 51.3594 72.7379 51.4059 72.6828 51.4131L61.1284 52.9231L58.9665 52.0307L58.9658 52.0304L45.265 46.4835C45.2142 46.4629 45.1913 46.4087 45.2138 46.3623Z" fill="white"/>
<path fill-rule="evenodd" clip-rule="evenodd" d="M117.604 87.6887C115.152 86.078 112.699 84.4673 110.256 82.8565L110.364 82.6923C112.806 84.3029 115.259 85.9135 117.711 87.5243C120.156 89.13 122.601 90.7358 125.036 92.3416C125.928 92.3805 126.894 92.4189 127.897 92.4189V92.6153C126.879 92.6153 125.9 92.576 125.001 92.5367L124.974 92.5355L124.952 92.5207C122.509 90.9101 120.057 89.2994 117.604 87.6887L117.604 87.6887Z" fill="white"/>
<path fill-rule="evenodd" clip-rule="evenodd" d="M118.133 70.8576L117.974 70.7352L118.099 70.5641L118.274 70.6984L123.901 76.9949L127.897 81.4446L127.744 81.5897L123.748 77.14L118.133 70.8576Z" fill="white"/>
<path d="M119.077 70.6095C118.837 71.3708 118.278 72.733 117.918 73.6545C117.558 74.4959 117.119 75.3773 116.56 76.2988C116.48 76.4591 116.36 76.5792 116.28 76.7395C114.282 79.9447 111.804 81.948 110.046 83.1499C109.846 83.2701 109.647 83.3903 109.487 83.5105L108.688 82.5089L105.771 78.903L105.651 78.7428L88.8681 104.465L87.2698 106.949L87.03 106.748L83.7934 104.425L61.1768 88.1581L59.5385 86.9561L66.5712 77.2604L76.0814 64.119H74.7228C74.5629 63.9186 74.4031 63.6382 74.2432 63.3577C73.8836 62.7567 73.4441 61.9955 73.0844 61.074C72.8847 60.5932 72.6849 60.0323 72.525 59.4714C72.4052 59.1108 72.3252 58.7502 72.2453 58.3496C72.1654 57.9489 72.0855 57.5483 72.0455 57.1476C71.9656 56.4665 71.9256 55.7854 71.8857 55.1844C71.8857 54.3431 71.9256 53.5417 72.0455 52.8606C72.1254 52.2196 72.2453 51.6587 72.3652 51.1779C72.3652 51.1779 72.3652 51.1779 72.3652 51.1378C72.4052 50.9776 72.4451 50.8173 72.4851 50.657L81.3159 50.016L86.5905 49.6154L95.6611 53.061C94.7421 55.0242 94.8619 57.2278 95.9808 58.4297C97.5392 60.1124 101.255 60.1124 103.693 57.3479C103.693 57.3479 103.693 57.3479 103.733 57.3079C103.773 57.2277 103.853 57.1877 103.893 57.1075C104.971 58.0691 106.01 59.0307 107.089 59.9922C108.408 61.1942 109.727 62.3962 111.085 63.5581C112.404 64.76 113.722 65.9219 115.041 67.1239C116.16 68.1255 117.878 69.688 118.997 70.6897" fill="white"/>
<path fill-rule="evenodd" clip-rule="evenodd" d="M110.151 69.4863C110.247 69.5415 110.284 69.6712 110.234 69.776L105.115 80.3725C105.064 80.4774 104.945 80.5176 104.849 80.4625C104.753 80.4073 104.716 80.2776 104.766 80.1727L109.885 69.5762C109.936 69.4714 110.055 69.4311 110.151 69.4863Z" fill="#010202"/>
<path fill-rule="evenodd" clip-rule="evenodd" d="M83.7093 54.0612C83.8016 54.1219 83.8225 54.2395 83.756 54.3238L75.3476 64.9731C75.2811 65.0574 75.1523 65.0765 75.06 65.0157C74.9676 64.955 74.9467 64.8374 75.0133 64.7531L83.4216 54.1038C83.4882 54.0195 83.617 54.0004 83.7093 54.0612Z" fill="#010202"/>
<path fill-rule="evenodd" clip-rule="evenodd" d="M127.031 83.118C127.269 83.0402 127.703 82.9239 127.897 82.8856L127.858 82.6923C127.653 82.7327 127.208 82.8521 126.964 82.932L126.961 82.933L126.958 82.9342C125.651 83.4567 124.915 84.3409 124.59 84.7814L124.752 84.8974C125.067 84.4707 125.775 83.6209 127.031 83.118Z" fill="white"/>
<path d="M104.033 45.0936C103.954 45.3346 103.438 45.4551 103.438 45.2141L103.16 42.6027L100.302 46.5398L97.4037 50.5171L97.2846 50.718C97.0464 49.111 96.9274 47.0621 97.1258 44.6918C97.4037 41.6787 98.1182 39.1478 98.8725 37.2997C99.1901 36.4962 99.9443 35.8936 100.818 35.8936H100.857C101.691 35.8936 102.286 36.215 102.525 36.3757C102.445 35.7731 102.405 34.367 103.16 32.8404C103.636 31.8762 104.311 31.2334 104.748 30.8718C104.986 31.8762 105.184 32.8805 105.422 33.8849C105.74 33.2823 106.494 31.9565 107.844 31.6351C109.868 31.153 112.647 33.0011 113.719 36.5766C114.036 36.1748 114.791 35.3312 115.743 35.3714C117.133 35.4115 118.681 37.2596 118.721 40.0718C121.102 39.5495 123.444 40.4333 124.754 42.2412C124.754 42.2814 126.422 44.732 125.31 47.2228C124.278 49.5529 121.222 50.8385 118.8 49.7136C117.093 48.9101 115.982 47.0621 115.982 45.0132C115.942 44.6918 115.823 44.3704 115.624 44.0088C114.989 43.0045 113.719 42.4822 112.33 42.6429C111.813 42.9643 111.059 43.3661 110.027 43.4464" fill="#010202"/>
<path fill-rule="evenodd" clip-rule="evenodd" d="M104.904 30.8718L104.959 31.1098C105.077 31.6232 105.185 32.1362 105.293 32.6477L105.293 32.6483C105.374 33.0319 105.455 33.4146 105.54 33.7969C105.699 33.5169 105.913 33.1804 106.189 32.8601C106.594 32.3904 107.139 31.9476 107.846 31.7742C108.904 31.5149 110.137 31.8855 111.231 32.7698C112.274 33.6128 113.202 34.9297 113.754 36.6488C113.912 36.463 114.123 36.2442 114.374 36.0532C114.732 35.781 115.187 35.5564 115.703 35.5785C116.453 35.6013 117.218 36.1221 117.793 36.98C118.347 37.8055 118.738 38.9575 118.788 40.3363C121.138 39.8736 123.434 40.7943 124.736 42.6436L124.764 42.6841V42.6961C124.768 42.7023 124.772 42.7104 124.777 42.7196C124.788 42.7377 124.8 42.7604 124.813 42.7831C124.857 42.8618 124.918 42.9751 124.989 43.118C125.129 43.4034 125.305 43.8076 125.445 44.292C125.726 45.2597 125.871 46.56 125.301 47.8751C124.248 50.3246 121.136 51.6742 118.662 50.4905L118.661 50.4902C116.918 49.6451 115.79 47.7086 115.787 45.5697C115.75 45.272 115.641 44.9674 115.454 44.6149C114.866 43.6617 113.686 43.1463 112.368 43.2927C111.849 43.6231 111.088 44.0329 110.052 44.116L110.03 43.8097C111.017 43.7305 111.741 43.335 112.242 43.0131L112.27 42.9952L112.303 42.9913C113.72 42.8224 115.039 43.3694 115.705 44.4534L115.707 44.4574L115.709 44.4616C115.911 44.8408 116.038 45.1875 116.08 45.5408L116.081 45.5503V45.5599C116.081 47.5938 117.153 49.4198 118.785 50.2115C121.104 51.3208 124.043 50.0497 125.032 47.7493L125.033 47.7489C125.563 46.5252 125.432 45.3072 125.163 44.381C125.029 43.9185 124.861 43.5318 124.726 43.2581C124.659 43.1213 124.6 43.0129 124.558 42.9373C124.545 42.9131 124.534 42.8949 124.525 42.8789C124.519 42.8678 124.513 42.8577 124.508 42.8475C124.505 42.8423 124.502 42.8371 124.499 42.8322C124.496 42.8271 124.494 42.8223 124.492 42.8179C124.491 42.8162 124.49 42.8142 124.489 42.812C123.227 41.0302 120.975 40.1541 118.676 40.6732L118.5 40.7129L118.498 40.5253C118.478 39.1195 118.093 37.9626 117.552 37.156C117.008 36.3456 116.319 35.9041 115.694 35.8855L115.692 35.8854C115.266 35.867 114.876 36.0517 114.548 36.3014C114.219 36.5508 113.963 36.8561 113.81 37.0564L113.635 37.2842L113.554 37.0051C113.031 35.2107 112.095 33.8565 111.051 33.0125C110.004 32.1666 108.86 31.8411 107.914 32.0732C107.285 32.2274 106.789 32.6241 106.408 33.0655C106.028 33.5069 105.769 33.985 105.613 34.2891L105.431 34.6461L105.34 34.2527C105.222 33.7394 105.114 33.2263 105.006 32.7149L105.006 32.7143C104.915 32.2835 104.824 31.8539 104.727 31.4246C104.314 31.8027 103.773 32.3929 103.376 33.2209C102.646 34.7416 102.685 36.1416 102.761 36.7354L102.804 37.0717L102.534 36.8835C102.314 36.731 101.753 36.4179 100.965 36.4179H100.926C100.131 36.4179 99.4331 36.9848 99.1376 37.7546L99.137 37.7562C98.3959 39.6263 97.6925 42.191 97.4189 45.2459C97.2393 47.4549 97.324 49.3876 97.5206 50.9487L100.296 47.0251L103.35 42.6934L103.665 45.7432C103.683 45.746 103.712 45.7465 103.753 45.7373C103.805 45.7259 103.858 45.7027 103.9 45.6726C103.943 45.6416 103.963 45.612 103.969 45.5932L104.248 45.6903C104.215 45.7944 104.141 45.8724 104.067 45.9257C103.991 45.9801 103.901 46.0184 103.815 46.0376C103.732 46.0562 103.634 46.0609 103.548 46.0274C103.504 46.0099 103.458 45.9801 103.423 45.9319C103.39 45.8853 103.373 45.8307 103.372 45.7742L103.138 43.5125L100.534 47.2069L97.6699 51.2552L97.3445 51.8205L97.2836 51.3975C97.0462 49.7482 96.9279 47.6478 97.1253 45.2193L97.1254 45.218C97.4019 42.1313 98.1126 39.5368 98.8643 37.6398C99.1977 36.772 99.9927 36.1108 100.926 36.1108H100.965C101.611 36.1108 102.12 36.3028 102.44 36.4728C102.392 35.7402 102.453 34.4585 103.112 33.0835C103.597 32.0737 104.282 31.4024 104.722 31.0268L104.904 30.8718Z" fill="white"/>
<path d="M103.376 58.4359C103.776 57.8712 104.096 57.0241 104.495 56.4997C104.775 56.7821 105.855 57.8309 107.853 57.8712C110.332 57.9115 111.811 56.0963 112.011 55.8543C112.851 54.8055 113.89 53.192 114.69 51.0541C115.409 49.1179 115.689 47.4237 115.769 46.1329C115.769 45.9716 115.769 45.7699 115.729 45.5279C115.689 45.2052 115.569 44.8825 115.369 44.5194C114.85 43.7127 113.97 43.2286 112.931 43.1479C112.451 43.1076 112.011 43.2286 111.611 43.4303C111.132 43.6723 110.492 43.9144 109.772 43.995C107.054 44.2371 105.135 42.2202 104.895 41.8975L103.576 45.8102C103.496 46.0523 103.176 45.8909 103.136 45.6489L102.816 43.1479L99.9377 47.101L97.0193 51.0945L96.8994 51.2961L94.8205 54.1601" fill="#010202"/>
<path fill-rule="evenodd" clip-rule="evenodd" d="M104.836 40.7949L105.004 41.0336C105.111 41.1844 105.629 41.7798 106.452 42.3052C107.272 42.829 108.385 43.2765 109.686 43.1549C110.374 43.0733 110.988 42.8288 111.45 42.5829C111.863 42.3635 112.324 42.228 112.831 42.2728C113.896 42.3601 114.809 42.8852 115.351 43.7716L115.353 43.7762L115.356 43.781C115.558 44.1687 115.685 44.5233 115.728 44.8845C115.769 45.1479 115.769 45.3675 115.769 45.535V45.542L115.769 45.5469C115.689 46.9049 115.41 48.684 114.694 50.7153C113.899 52.9583 112.864 54.6527 112.026 55.7559L112.025 55.7578L112.02 55.7646C111.8 56.0451 110.304 57.9569 107.804 57.914L107.804 57.914C105.998 57.8756 104.928 56.9809 104.511 56.5686C104.36 56.8058 104.217 57.0927 104.07 57.3937C104.061 57.4109 104.053 57.4282 104.045 57.4455C103.876 57.7886 103.701 58.1457 103.507 58.4359L103.266 58.2529C103.448 57.9812 103.614 57.642 103.786 57.2917L103.807 57.248C103.984 56.8885 104.167 56.5187 104.374 56.2328L104.477 56.0907L104.596 56.2175C104.861 56.4992 105.892 57.5582 107.809 57.5991C110.167 57.6394 111.584 55.829 111.794 55.5612L111.796 55.558C111.796 55.5577 111.797 55.5574 111.797 55.5571C112.617 54.4769 113.634 52.8121 114.417 50.6047C115.121 48.6074 115.395 46.8611 115.473 45.5322C115.473 45.3657 115.473 45.1687 115.436 44.9331L115.435 44.93L115.435 44.9268C115.399 44.6186 115.29 44.3037 115.1 43.9387C114.615 43.1483 113.793 42.6674 112.808 42.5868L112.807 42.5867C112.366 42.5477 111.96 42.6641 111.583 42.8645C111.098 43.1223 110.45 43.3815 109.717 43.4681L109.714 43.4685C108.332 43.5982 107.156 43.1221 106.3 42.5753C105.66 42.1672 105.193 41.7159 104.943 41.4371L103.724 45.251C103.724 45.2511 103.724 45.2513 103.724 45.2514C103.692 45.3517 103.629 45.4302 103.538 45.4649C103.452 45.4977 103.364 45.4827 103.294 45.4513C103.157 45.39 103.032 45.2425 103.003 45.0591L103.002 45.0534L102.734 42.8398L100.111 46.6381L97.2339 50.7895L97.1157 50.9992L95.0593 53.9864L94.8205 53.8003L96.8688 50.8248L96.9874 50.6146L99.8725 46.4517L102.933 42.0197L103.296 45.0097C103.307 45.0773 103.359 45.1386 103.409 45.161C103.423 45.1674 103.432 45.1683 103.436 45.1683C103.438 45.1655 103.44 45.1604 103.443 45.1514L103.443 45.1505L104.836 40.7949Z" fill="white"/>
<path fill-rule="evenodd" clip-rule="evenodd" d="M104.856 41.8975L104.968 42.0478C105.079 42.1957 105.604 42.7627 106.436 43.2624C107.266 43.7611 108.394 44.1886 109.715 44.0722C110.413 43.9944 111.035 43.761 111.504 43.5266C111.912 43.3223 112.366 43.1972 112.864 43.2387C113.921 43.3202 114.822 43.8097 115.357 44.6328L115.359 44.6357L115.36 44.6387C115.562 45.002 115.687 45.3313 115.729 45.6647C115.769 45.91 115.769 46.1145 115.769 46.2729V46.2774L115.769 46.2805C115.689 47.5594 115.41 49.2359 114.693 51.1507C113.896 53.265 112.86 54.8617 112.021 55.9007L112.02 55.9019L112.015 55.9081C111.796 56.1712 110.307 57.962 107.82 57.9219C105.96 57.8846 104.885 56.9882 104.505 56.6242C104.338 56.8605 104.184 57.1529 104.025 57.4568C104.017 57.4727 104.009 57.4886 104.001 57.5046C103.831 57.8299 103.657 58.1645 103.463 58.4359L103.302 58.3206C103.487 58.0609 103.656 57.7375 103.828 57.4077C103.835 57.3935 103.842 57.3793 103.85 57.365C104.027 57.0244 104.21 56.679 104.414 56.4129L104.483 56.3233L104.563 56.4032C104.832 56.6733 105.879 57.6845 107.824 57.7235C110.215 57.7619 111.652 56.035 111.864 55.7799L111.867 55.7761C111.867 55.7759 111.867 55.7757 111.868 55.7755C112.694 54.7509 113.719 53.1728 114.507 51.0808C115.216 49.1875 115.492 47.5317 115.571 46.2712C115.571 46.1133 115.571 45.9231 115.533 45.6953L115.532 45.6913C115.495 45.3913 115.382 45.0871 115.189 44.7381C114.692 43.9755 113.851 43.5138 112.848 43.4365L112.848 43.4365C112.394 43.3986 111.977 43.5117 111.592 43.7041C111.109 43.9459 110.464 44.1886 109.736 44.2696L109.733 44.2698C108.359 44.3913 107.188 43.9457 106.334 43.4326C105.643 43.0176 105.155 42.5556 104.926 42.3049L103.675 45.9882C103.675 45.9883 103.675 45.9881 103.675 45.9882C103.647 46.0712 103.593 46.1325 103.518 46.1593C103.447 46.185 103.372 46.1738 103.31 46.1475C103.187 46.0956 103.073 45.9696 103.047 45.8144L103.047 45.8108L102.761 43.5959L100.054 47.2855L97.163 51.2106L97.0442 51.4089L94.9804 54.2302L94.8205 54.113L96.8789 51.299L96.9979 51.1005L99.8941 47.168L102.894 43.0792L103.243 45.7834C103.257 45.8656 103.322 45.9372 103.386 45.9646C103.418 45.9779 103.44 45.9767 103.451 45.9725C103.46 45.9697 103.475 45.9613 103.487 45.9254L103.487 45.9249L104.856 41.8975Z" fill="white"/>
<path d="M100.748 47.4103C99.495 46.3233 98.9519 44.7765 99.3697 43.3551C99.7875 41.8501 101.333 40.5123 102.378 40.8467C103.339 41.1394 104.007 42.937 103.422 45.111" fill="#040505"/>
<path fill-rule="evenodd" clip-rule="evenodd" d="M100.786 41.6475C100.275 42.0892 99.8342 42.7427 99.6478 43.4291L99.6472 43.4313L99.6472 43.4313C99.2762 44.7221 99.7548 46.1409 100.89 47.1475C100.951 47.2017 100.957 47.2962 100.905 47.3587C100.852 47.4211 100.759 47.4279 100.698 47.3737C99.4933 46.3052 98.9578 44.7708 99.3663 43.3479C99.5701 42.5979 100.046 41.8948 100.597 41.4187C101.142 40.9487 101.799 40.6686 102.359 40.8514C102.877 41.0132 103.279 41.5717 103.485 42.3156C103.693 43.0681 103.711 44.0437 103.432 45.1043C103.411 45.1841 103.33 45.2314 103.252 45.2099C103.174 45.1884 103.128 45.1063 103.149 45.0265C103.416 44.0116 103.395 43.0914 103.203 42.397C103.009 41.6945 102.652 41.2555 102.273 41.1375L102.271 41.1368L102.271 41.1368C101.856 41.001 101.304 41.1998 100.786 41.6475Z" fill="white"/>
<path fill-rule="evenodd" clip-rule="evenodd" d="M32.4959 4.14293C47.0386 1.58221 67.123 0 89.3077 0C111.492 0 131.577 1.58221 146.119 4.14293C153.389 5.423 159.284 6.94924 163.366 8.64914C165.406 9.49875 167.005 10.3963 168.096 11.3363C169.187 12.2753 169.795 13.2775 169.795 14.3333C169.795 15.3891 169.187 16.3913 168.096 17.3304C167.005 18.2704 165.406 19.1679 163.366 20.0175C159.284 21.7174 153.389 23.2437 146.119 24.5237C131.577 27.0845 111.492 28.6667 89.3077 28.6667C67.1429 28.6667 47.0584 27.0845 32.5108 24.5237C25.2386 23.2437 19.3402 21.7174 15.2552 20.0175C13.2135 19.1679 11.6135 18.2704 10.5207 17.3305C9.42897 16.3914 8.8205 15.3892 8.8205 14.3333C8.8205 13.2775 9.42826 12.2753 10.519 11.3363C11.6108 10.3963 13.2094 9.49875 15.2495 8.64914C19.3315 6.94924 25.2261 5.423 32.4959 4.14293ZM10.7805 11.6301C9.73279 12.5322 9.21757 13.4364 9.21757 14.3333C9.21757 15.2302 9.73331 16.1344 10.7821 17.0365C11.8298 17.9376 13.3865 18.8159 15.4099 19.6579C19.455 21.3411 25.32 22.8612 32.5807 24.1393C47.099 26.6948 67.1589 28.2761 89.3077 28.2761C111.476 28.2761 131.536 26.6948 146.05 24.1393C153.308 22.8612 159.169 21.3412 163.211 19.6579C165.233 18.8159 166.788 17.9377 167.835 17.0365C168.883 16.1345 169.398 15.2303 169.398 14.3333C169.398 13.4364 168.883 12.5322 167.835 11.6301C166.788 10.729 165.233 9.85076 163.211 9.00878C159.169 7.32551 153.308 5.80542 146.05 4.52737C131.536 1.97183 111.476 0.390554 89.3077 0.390554C67.139 0.390554 47.0791 1.97183 32.5659 4.52737C25.3076 5.80542 19.4464 7.32551 15.4044 9.00878C13.3826 9.85076 11.8272 10.729 10.7805 11.6301Z" fill="white"/>
<path fill-rule="evenodd" clip-rule="evenodd" d="M47.4102 105.492C50.8634 105.207 54.5571 104.957 58.4109 104.744L58.4359 105.099C54.5855 105.313 50.8959 105.562 47.4474 105.846L47.4102 105.492Z" fill="white"/>
<path fill-rule="evenodd" clip-rule="evenodd" d="M83.7949 104.1C83.7949 103.847 83.883 103.641 83.9917 103.641C85.6617 103.641 87.1919 103.722 88.8099 103.809C88.9113 103.814 89.0131 103.819 89.1153 103.825C89.224 103.831 89.3101 104.041 89.3076 104.295C89.3052 104.548 89.215 104.749 89.1063 104.743C89.0044 104.738 88.903 104.733 88.8019 104.727C87.1831 104.641 85.6571 104.56 83.9917 104.56C83.883 104.56 83.7949 104.354 83.7949 104.1Z" fill="white"/>
<path fill-rule="evenodd" clip-rule="evenodd" d="M83.7949 103.843C83.7949 103.731 83.8832 103.641 83.9921 103.641C85.7042 103.641 87.241 103.677 88.8642 103.715C88.9636 103.717 89.0634 103.719 89.1636 103.722C103.883 103.964 117.225 104.973 127.729 106.547C127.837 106.564 127.911 106.666 127.895 106.776C127.88 106.886 127.779 106.963 127.672 106.947C117.189 105.375 103.865 104.367 89.1566 104.125L89.1553 104.125V104.125C89.0552 104.123 88.9555 104.12 88.8562 104.118C87.2322 104.08 85.6996 104.044 83.9921 104.044C83.8832 104.044 83.7949 103.954 83.7949 103.843Z" fill="white"/>
<path d="M137.269 109.154C137.574 109.154 137.821 108.907 137.821 108.603C137.821 108.298 137.574 108.051 137.269 108.051C136.965 108.051 136.718 108.298 136.718 108.603C136.718 108.907 136.965 109.154 137.269 109.154Z" fill="white"/>
<path fill-rule="evenodd" clip-rule="evenodd" d="M33.2683 107.123C33.2857 107.236 33.2136 107.343 33.1071 107.362C27.0378 108.421 22.141 109.685 18.7659 111.086C17.0773 111.786 15.7811 112.516 14.9104 113.262C14.037 114.011 13.6214 114.75 13.6214 115.469C13.6214 116.235 14.0878 117.02 15.0655 117.812C16.0392 118.601 17.4858 119.368 19.3628 120.1C23.1144 121.564 28.5393 122.87 35.2143 123.95M45.2051 125.692C41.6078 125.318 38.2449 124.86 35.1557 124.361L35.1556 124.361C28.4707 123.28 23.0161 121.968 19.2283 120.491C17.3355 119.752 15.8474 118.968 14.8288 118.143C13.8142 117.321 13.2308 116.428 13.2308 115.469C13.2308 114.567 13.7527 113.721 14.6653 112.939C15.5806 112.154 16.9188 111.406 18.624 110.698C22.0363 109.283 26.9642 108.012 33.0439 106.952C33.1504 106.933 33.2508 107.01 33.2683 107.123" fill="white"/>
<path fill-rule="evenodd" clip-rule="evenodd" d="M74.0173 136.758C76.3319 136.718 78.6464 136.718 81.0385 136.718C97.5921 136.718 112.574 137.626 123.421 139.09C128.843 139.821 133.239 140.693 136.285 141.662C137.806 142.147 139.002 142.659 139.821 143.197C140.63 143.729 141.128 144.324 141.128 144.987C141.128 145.651 140.63 146.245 139.82 146.777C138.999 147.315 137.802 147.828 136.279 148.312C133.231 149.281 128.83 150.153 123.406 150.885C112.554 152.348 97.5722 153.256 81.0385 153.256H78.4865L78.4852 153.256C72.7814 153.216 67.316 153.095 62.1291 152.853C50.2223 152.308 39.965 151.279 32.6808 149.94C29.0404 149.271 26.133 148.524 24.1315 147.716C23.1317 147.313 22.3462 146.891 21.8073 146.447C21.271 146.007 20.9487 145.519 20.9487 144.987C20.9487 144.334 21.4386 143.747 22.2333 143.221C23.0386 142.688 24.2135 142.18 25.708 141.699C28.6996 140.736 33.0187 139.867 38.3455 139.14C38.747 139.079 39.1579 139.029 39.5708 138.978L39.6408 138.97C40.032 138.922 40.4249 138.874 40.8175 138.817L40.8217 138.817C44.7736 138.332 49.2033 137.929 53.9908 137.606L54.0173 138.008C49.236 138.331 44.8144 138.734 40.8718 139.217C40.4753 139.274 40.0791 139.323 39.6896 139.37L39.6185 139.379C39.2046 139.429 38.7986 139.479 38.4031 139.539L38.4002 139.54C33.0814 140.265 28.7882 141.131 25.8289 142.083C24.3479 142.56 23.2126 143.055 22.4516 143.559C21.68 144.069 21.3475 144.551 21.3475 144.987C21.3475 145.342 21.5622 145.726 22.0588 146.134C22.5527 146.54 23.2958 146.945 24.2791 147.342C26.2438 148.134 29.1206 148.876 32.7521 149.543C40.0119 150.877 50.2496 151.905 62.1473 152.45C67.3274 152.692 72.7874 152.813 78.4873 152.853H81.0385C97.5601 152.853 112.524 151.946 123.353 150.485C128.769 149.754 133.143 148.886 136.16 147.927C137.669 147.447 138.827 146.948 139.603 146.439C140.389 145.922 140.729 145.433 140.729 144.987C140.729 144.541 140.39 144.052 139.604 143.536C138.829 143.026 137.673 142.527 136.165 142.047C133.152 141.088 128.782 140.22 123.368 139.489C112.543 138.029 97.5801 137.121 81.0385 137.121C78.6458 137.121 76.3348 137.121 74.0241 137.162L74.0173 136.758Z" fill="white"/>
<path fill-rule="evenodd" clip-rule="evenodd" d="M151.58 45.7979C151.58 44.6683 152.659 43.8551 153.738 44.1714C155.724 44.7503 160.02 46.0893 163.804 47.9053C165.694 48.8128 167.468 49.8446 168.762 50.9671C170.049 52.0842 170.901 53.3259 170.859 54.6544C170.816 56.0249 169.834 57.2604 168.353 58.3606C166.864 59.4663 164.826 60.4692 162.577 61.3661C158.075 63.1605 152.678 64.5487 149.011 65.4851C141.539 67.4022 135.06 68.1612 130.25 68.4409C129.166 68.5139 128.294 69.4616 128.294 70.5534C128.294 70.5537 128.294 70.5539 128.294 70.5541L128.572 109.935C128.572 109.936 128.572 109.937 128.572 109.937C128.609 111.178 129.701 112.163 130.934 112.055C144.053 110.78 153.862 108.53 160.44 106.017C163.729 104.76 166.203 103.441 167.877 102.15C169.559 100.854 170.401 99.6127 170.502 98.521L170.897 98.558C170.781 99.8183 169.828 101.149 168.119 102.466C166.403 103.789 163.891 105.125 160.581 106.39C153.959 108.92 144.112 111.175 130.971 112.451L130.969 112.452C129.506 112.581 128.218 111.416 128.175 109.947L128.175 109.942L127.897 70.5555L127.897 70.5541C127.897 69.2546 128.929 68.1299 130.225 68.0431L130.226 68.043C135.016 67.7645 141.469 67.0086 148.912 65.0988L148.913 65.0987C149.727 64.8907 150.626 64.6608 151.58 64.4095V45.7979ZM151.976 64.3045C155.239 63.4379 159.086 62.3288 162.43 60.9956C164.668 60.1035 166.669 59.1156 168.117 58.04C169.572 56.9589 170.425 55.8224 170.462 54.6417L170.462 54.6415C170.499 53.4984 169.764 52.363 168.503 51.2689C167.248 50.1801 165.511 49.1663 163.633 48.265C159.879 46.4633 155.608 45.1314 153.627 44.5542L153.627 44.5541C152.801 44.3122 151.976 44.9341 151.976 45.7979V64.3045Z" fill="white"/>
<path fill-rule="evenodd" clip-rule="evenodd" d="M168.692 62.8462V98.7713L168.601 98.8302C166.68 100.065 164.557 101.259 162.27 102.374C153.409 106.712 144.711 108.424 137.405 108.941C134.833 109.14 132.465 109.18 130.302 109.14L130.103 109.136V71.8555L130.29 71.8414C130.643 71.815 130.991 71.7886 131.339 71.7621C132.036 71.7092 132.732 71.6563 133.465 71.6034C138.862 71.1286 145.032 70.1794 151.729 68.5189C151.912 68.4341 152.129 68.3919 152.315 68.3556L152.324 68.3539C158.416 66.8491 163.818 64.9487 168.406 62.9695L168.692 62.8462ZM168.285 63.4551C163.738 65.3991 158.411 67.2601 152.419 68.7397L152.414 68.741L152.409 68.742C152.198 68.7831 152.024 68.8185 151.89 68.8836L151.871 68.8931L151.849 68.8984C145.122 70.5677 138.924 71.5217 133.499 71.9988L133.496 71.9991C132.764 72.0519 132.068 72.1048 131.372 72.1576C131.085 72.1794 130.799 72.2012 130.51 72.2229V108.747C132.607 108.78 134.895 108.737 137.373 108.545L137.374 108.545C144.64 108.031 153.283 106.33 162.088 102.019C164.324 100.929 166.403 99.7623 168.285 98.5576V63.4551Z" fill="white"/>
<path fill-rule="evenodd" clip-rule="evenodd" d="M165.385 67.2563V97.5525L165.267 97.6072C161.505 99.3664 156.973 101.167 151.794 102.639L151.793 102.64C144.956 104.562 138.725 105.462 133.626 105.83L133.41 105.846V74.3766L133.593 74.3592C138.753 73.8702 144.597 73.0143 150.965 71.5066C151.131 71.4648 151.335 71.4234 151.534 71.3832C156.531 70.1607 161.086 68.7343 165.118 67.3481L165.385 67.2563ZM164.981 67.8261C161.006 69.1865 156.529 70.5814 151.625 71.7809L151.621 71.7819L151.617 71.7827C151.414 71.8238 151.217 71.8636 151.061 71.903L151.058 71.9038C144.745 73.3987 138.944 74.2548 133.814 74.7482V105.407C138.849 105.031 144.973 104.134 151.685 102.246C156.787 100.795 161.258 99.0253 164.981 97.2914V67.8261Z" fill="white"/>
<path fill-rule="evenodd" clip-rule="evenodd" d="M159.105 89.3077L165.385 91.8782L165.226 92.2395L159.235 89.7871C159.217 89.8106 159.195 89.8371 159.172 89.8667C159.07 89.9934 158.924 90.1745 158.748 90.3917C158.397 90.8262 157.925 91.4056 157.445 91.9853C156.965 92.5645 156.474 93.1455 156.085 93.5822C155.891 93.8002 155.72 93.9849 155.587 94.116C155.521 94.1812 155.46 94.2367 155.409 94.2773C155.384 94.2973 155.357 94.3173 155.329 94.3333C155.309 94.3446 155.256 94.374 155.189 94.374C155.154 94.374 155.115 94.3657 155.095 94.3611C155.067 94.355 155.032 94.3463 154.994 94.3359C154.916 94.3149 154.813 94.2847 154.688 94.2469C154.439 94.1712 154.1 94.0634 153.703 93.9346C152.908 93.6767 151.875 93.3331 150.851 92.9897C149.827 92.6462 148.813 92.3028 148.054 92.0453C147.675 91.9165 147.359 91.8092 147.139 91.734L146.896 91.6514L133.657 101.436L133.41 101.124L146.824 91.2106L146.928 91.246L146.86 91.431C146.928 91.246 146.928 91.246 146.928 91.246L147.274 91.364C147.494 91.4391 147.809 91.5463 148.189 91.6751C148.947 91.9325 149.961 92.2758 150.984 92.619C152.008 92.9623 153.039 93.3054 153.832 93.5626C154.229 93.6912 154.565 93.798 154.81 93.8726C154.933 93.9099 155.032 93.9387 155.103 93.9579C155.123 93.9633 155.14 93.9678 155.155 93.9714C155.189 93.944 155.236 93.901 155.296 93.8416C155.42 93.7195 155.584 93.5424 155.777 93.3263C156.161 92.8949 156.648 92.3183 157.128 91.74C157.607 91.162 158.077 90.5839 158.428 90.1502C158.604 89.9334 158.749 89.7527 158.85 89.6262C158.901 89.563 158.941 89.5133 158.968 89.4795L159.009 89.4279C159.009 89.4278 159.01 89.4277 159.17 89.5475L159.009 89.4279L159.105 89.3077ZM155.122 93.9956C155.118 93.9976 155.119 93.9969 155.123 93.9949C155.123 93.9952 155.122 93.9954 155.122 93.9956Z" fill="white"/>
<path d="M152.154 83.2238C152.154 83.6204 152.075 83.9773 151.996 84.2946C151.918 84.5326 151.799 84.7705 151.681 84.9688C151.288 85.6034 150.658 86 149.949 86C149.397 86 148.925 85.762 148.531 85.3654C148.059 84.8499 147.744 84.0963 147.744 83.2634C147.744 81.7563 148.728 80.4872 149.949 80.4872C150.658 80.4872 151.248 80.8838 151.681 81.5184C151.996 81.9546 152.154 82.5495 152.154 83.2238Z" fill="white"/>
<path fill-rule="evenodd" clip-rule="evenodd" d="M19.4378 39.144C19.4378 38.2999 18.5885 37.6921 17.7392 37.9285L17.7389 37.9286C15.7 38.4927 11.303 39.7944 7.43934 41.5552C5.50647 42.4361 3.71834 43.4269 2.42662 44.4909C1.1285 45.5602 0.37192 46.6698 0.409691 47.787L0.409697 47.7872C0.447489 48.9411 1.32537 50.0518 2.82352 51.1084C4.31408 52.1596 6.37377 53.1251 8.67714 53.9969C12.1197 55.2999 16.0793 56.3838 19.4378 57.2308V39.144ZM19.8462 57.3333V39.144C19.8462 38.0403 18.7357 37.2455 17.6252 37.5544C15.5807 38.1201 11.1579 39.4288 7.26336 41.2036C5.31713 42.0906 3.49157 43.0989 2.15979 44.196C0.834472 45.2877 -0.0422302 46.5011 0.00156948 47.7994" fill="white"/>
<path fill-rule="evenodd" clip-rule="evenodd" d="M0 91.5128V47.4103H1.10256V91.5128H0Z" fill="white"/>
<path fill-rule="evenodd" clip-rule="evenodd" d="M2.20514 68.9102C2.20514 64.352 5.39743 60.641 9.37181 60.641C13.3462 60.641 16.5385 64.352 16.5385 68.9102C16.5385 73.4684 13.3462 77.1795 9.37181 77.1795C5.39743 77.1795 2.20514 73.4684 2.20514 68.9102ZM9.37181 61.0405C5.66479 61.0405 2.60109 64.5201 2.60109 68.9102C2.60109 73.3004 5.66479 76.78 9.37181 76.78C13.0788 76.78 16.1425 73.3004 16.1425 68.9102C16.1425 64.5201 13.0788 61.0405 9.37181 61.0405Z" fill="white"/>
<path fill-rule="evenodd" clip-rule="evenodd" d="M5.51282 68.359C5.51282 65.3563 7.46221 62.8462 9.92307 62.8462C12.3839 62.8462 14.3333 65.3563 14.3333 68.359C14.3333 71.3617 12.3839 73.8718 9.92307 73.8718C7.46221 73.8718 5.51282 71.3617 5.51282 68.359ZM9.92307 63.2515C7.71426 63.2515 5.88343 65.5246 5.88343 68.359C5.88343 71.1934 7.71426 73.4665 9.92307 73.4665C12.1319 73.4665 13.9627 71.1934 13.9627 68.359C13.9627 65.5246 12.1319 63.2515 9.92307 63.2515Z" fill="white"/>
<path fill-rule="evenodd" clip-rule="evenodd" d="M15.1554 73.8719L13.2308 72.9148L13.5113 72.7693L15.4359 73.7264L15.1554 73.8719Z" fill="white"/>
<path fill-rule="evenodd" clip-rule="evenodd" d="M8.8205 81.5897L9.11694 81.7388C12.2001 83.2891 16.2573 84.9987 21.1261 86.3107C26.0755 87.6226 30.4572 88.1394 33.9876 88.3382L34.1795 88.349V91.5128L33.953 91.4876C29.9974 91.0481 25.4278 90.3286 20.49 89.009C16.1261 87.85 12.2916 86.531 8.94607 85.1717L8.8205 85.1207V81.5897ZM9.22754 82.2417V84.854C12.5278 86.189 16.3044 87.4841 20.5967 88.6241C25.4155 89.9119 29.884 90.6258 33.7724 91.0659V88.7255C30.2539 88.5176 25.9125 87.9926 21.0194 86.6956L21.0186 86.6954C16.2729 85.4166 12.2932 83.7625 9.22754 82.2417Z" fill="white"/>
<path fill-rule="evenodd" clip-rule="evenodd" d="M8.8205 86L9.11598 86.1467C12.2411 87.698 16.2578 89.4078 21.1261 90.72C26.0755 92.0321 30.4572 92.549 33.9876 92.7479L34.1795 92.7587V95.9231L33.953 95.8979C29.9974 95.4583 25.4278 94.7386 20.49 93.4188C16.1261 92.2596 12.2916 90.9403 8.94607 89.5807L8.8205 89.5297V86ZM9.22754 86.6486V89.2631C12.5278 90.5984 16.3044 91.8936 20.5967 93.0338C25.4155 94.3218 29.884 95.0359 33.7724 95.4761V93.1352C30.2539 92.9273 25.9125 92.4021 21.0194 91.105L21.0186 91.1048C16.2702 89.825 12.3273 88.1697 9.22754 86.6486Z" fill="white"/>
<path fill-rule="evenodd" clip-rule="evenodd" d="M8.8205 90.4103L9.11694 90.5593C12.2001 92.1097 16.2573 93.8192 21.1261 95.1313C26.0755 96.4431 30.4572 96.96 33.9876 97.1588L34.1795 97.1696V100.333L33.953 100.308C29.9974 99.8686 25.4278 99.1491 20.49 97.8295C16.1261 96.6705 12.2916 95.3515 8.94607 93.9922L8.8205 93.9412V90.4103ZM9.22754 91.0623V93.6745C12.5278 95.0095 16.3044 96.3047 20.5967 97.4446C25.4155 98.7324 29.884 99.4464 33.7724 99.8865V97.546C30.2539 97.3381 25.9125 96.8131 21.0194 95.5162L21.0186 95.516C16.2729 94.2372 12.2932 92.583 9.22754 91.0623Z" fill="white"/>
</svg>
