<svg width="354" height="200" viewBox="0 0 354 200" fill="none" xmlns="http://www.w3.org/2000/svg">
<path fill-rule="evenodd" clip-rule="evenodd" d="M89.1091 35.4128C89.2428 35.4049 89.3576 35.5069 89.3654 35.6406L89.837 43.6573H96.599L98.6016 54.1712L98.5033 54.2625C96.1747 56.4248 89.3155 59.6834 80.2967 55.7622L80.1509 55.6988V48.2648C80.1509 48.1309 80.2594 48.0223 80.3934 48.0223C80.5273 48.0223 80.6359 48.1309 80.6359 48.2648V55.3802C89.2645 59.0662 95.7943 56.0284 98.0747 53.9968L96.1976 44.1423H89.3797L88.8813 35.6691C88.8734 35.5354 88.9754 35.4206 89.1091 35.4128Z" fill="white"/>
<path fill-rule="evenodd" clip-rule="evenodd" d="M90.8209 24.9848C90.8209 24.8509 90.9294 24.7423 91.0634 24.7423H92.5184C92.6523 24.7423 92.7609 24.8509 92.7609 24.9848C92.7609 25.1187 92.6523 25.2273 92.5184 25.2273H91.0634C90.9294 25.2273 90.8209 25.1187 90.8209 24.9848Z" fill="white"/>
<path fill-rule="evenodd" clip-rule="evenodd" d="M86.1861 11.5852C83.5764 11.2886 80.4865 11.8807 77.629 14.0239C74.7718 16.1668 73.4612 18.6628 72.5618 21.5409C72.1621 22.82 71.8449 24.1701 71.5085 25.6019C71.4649 25.7872 71.421 25.974 71.3766 26.1621C70.9899 27.7999 70.5635 29.5367 69.9536 31.3665C68.1033 36.9172 63.2276 39.7159 60.5868 40.5888L77.4338 51.8201C82.3117 45.7377 82.8818 40.7836 82.5816 39.1025C82.252 37.8607 82.0082 35.819 82.3363 33.69C82.6657 31.5534 83.5752 29.3069 85.577 27.7054C87.4655 26.1947 88.7393 23.8194 89.5611 21.438C90.3817 19.0602 90.7417 16.706 90.8214 15.2714C90.8288 15.1377 90.9432 15.0353 91.0769 15.0427C91.2107 15.0502 91.313 15.1646 91.3056 15.2983C91.2236 16.7737 90.8561 19.1724 90.0196 21.5962C89.1844 24.0163 87.8715 26.491 85.88 28.0842C84.0019 29.5867 83.133 31.7052 82.8157 33.7638C82.4981 35.8244 82.7371 37.8032 83.0528 38.9873L83.0553 38.9967L83.0571 39.0064C83.3969 40.8754 82.7448 46.0538 77.6717 52.2976L77.5325 52.4689L59.4424 40.4088L59.9611 40.2704C62.3388 39.6364 67.5881 36.9291 69.4935 31.2131C70.096 29.4054 70.5183 27.6866 70.9046 26.0506C70.9489 25.8631 70.9927 25.6765 71.0363 25.4909C71.3721 24.0616 71.6936 22.6932 72.0989 21.3962C73.0182 18.4544 74.3752 15.8579 77.338 13.6359C80.3004 11.414 83.5155 10.7936 86.2408 11.1033C88.9541 11.4116 91.2134 12.6477 92.2352 14.1803C92.7368 14.9328 93.6542 16.8344 94.4754 19.2068C95.2979 21.5828 96.0329 24.4567 96.1556 27.1563C96.278 29.849 95.793 32.4187 94.1162 34.1271C92.431 35.8441 89.607 36.6279 85.2036 35.894C85.0715 35.8719 84.9822 35.747 85.0042 35.6149C85.0263 35.4828 85.1512 35.3935 85.2833 35.4156C89.6099 36.1367 92.2421 35.3442 93.77 33.7874C95.3064 32.2221 95.7913 29.8206 95.6712 27.1783C95.5514 24.5429 94.8314 21.7181 94.0171 19.3654C93.2014 17.0091 92.3 15.1519 91.8316 14.4494C90.9134 13.0721 88.8077 11.8831 86.1861 11.5852Z" fill="white"/>
<path fill-rule="evenodd" clip-rule="evenodd" d="M89.5347 28.472C90.1703 27.598 90.5784 26.3667 90.5784 24.9849C90.5784 23.603 90.1703 22.3717 89.5347 21.4977C88.8988 20.6233 88.0614 20.1349 87.1834 20.1349C86.3054 20.1349 85.468 20.6233 84.8321 21.4977C84.1964 22.3717 83.7884 23.603 83.7884 24.9849C83.7884 26.3667 84.1964 27.598 84.8321 28.472C85.468 29.3465 86.3054 29.8349 87.1834 29.8349C88.0614 29.8349 88.8988 29.3465 89.5347 28.472ZM87.1834 30.3199C89.3262 30.3199 91.0634 27.9313 91.0634 24.9849C91.0634 22.0385 89.3262 19.6499 87.1834 19.6499C85.0405 19.6499 83.3034 22.0385 83.3034 24.9849C83.3034 27.9313 85.0405 30.3199 87.1834 30.3199Z" fill="white"/>
<path fill-rule="evenodd" clip-rule="evenodd" d="M98.2647 28.472C98.9003 27.598 99.3084 26.3667 99.3084 24.9849C99.3084 23.603 98.9003 22.3717 98.2647 21.4977C97.6287 20.6233 96.7914 20.1349 95.9134 20.1349C95.0353 20.1349 94.198 20.6233 93.562 21.4977C92.9264 22.3717 92.5184 23.603 92.5184 24.9849C92.5184 26.3667 92.9264 27.598 93.562 28.472C94.198 29.3465 95.0353 29.8349 95.9134 29.8349C96.7914 29.8349 97.6287 29.3465 98.2647 28.472ZM95.9134 30.3199C98.0562 30.3199 99.7934 27.9313 99.7934 24.9849C99.7934 22.0385 98.0562 19.6499 95.9134 19.6499C93.7705 19.6499 92.0334 22.0385 92.0334 24.9849C92.0334 27.9313 93.7705 30.3199 95.9134 30.3199Z" fill="white"/>
<path d="M69.2385 53.1147L73.1185 49.2347L77.4834 52.1447L80.3934 48.2647L80.3934 55.5397L81.8484 82.6996L69.7234 81.7296C70.8874 77.4616 71.8251 69.2813 72.1484 65.7247L68.7534 82.6996L82.8184 83.6696L97.3683 84.1546L95.4283 94.3396L60.9935 100.16C50.1296 98.6075 49.6769 88.1962 50.8086 83.1846C52.2635 76.233 55.6585 60.5837 57.5985 53.5997C59.5385 46.6157 64.5502 44.8698 66.8135 44.8698L72.1485 48.7497L67.7835 52.6297L79.9084 76.8796L80.3934 76.3946L69.2385 53.1147Z" fill="white"/>
<path fill-rule="evenodd" clip-rule="evenodd" d="M57.3649 53.5349C59.3357 46.4401 64.4475 44.6273 66.8135 44.6273H66.8923L72.5348 48.7309L68.0835 52.6876L79.9749 76.4703L80.1005 76.3446L68.9456 53.0647L73.0876 48.9228L77.427 51.8158L80.6359 47.5373L80.6359 55.5333L82.1054 82.9635L69.4125 81.9481L69.4895 81.6659C70.2166 78.9998 70.8564 74.789 71.3119 71.1439L69.0453 82.4767L82.8308 83.4274L97.6596 83.9217L95.635 94.5506L60.9966 100.405L60.9592 100.4C55.4348 99.6105 52.5359 96.5567 51.1766 93.0573C49.8249 89.5773 49.9989 85.6709 50.5716 83.1331C52.0264 76.1823 55.4226 60.5272 57.3649 53.5349ZM66.7356 45.113C64.537 45.1528 59.7188 46.8729 57.8322 53.6647C55.8947 60.6397 52.5013 76.2809 51.0459 83.2343L51.0451 83.2381C50.4865 85.7121 50.3214 89.516 51.6287 92.8817C52.9258 96.221 55.6754 99.1431 60.9905 99.9142L95.2217 94.1286L97.0771 84.3876L82.8017 83.9117L68.4616 82.9226L71.9106 65.6772L72.3899 65.7467C72.0737 69.225 71.1679 77.1513 70.0326 81.5111L81.5914 82.4358L80.1506 55.5398L80.1509 48.9923L77.5398 52.4738L73.1494 49.5468L69.5314 53.1648L80.6863 76.4447L79.842 77.2891L67.4835 52.572L71.7622 48.7687L66.7356 45.113Z" fill="white"/>
<path d="M104.643 86.5796L96.3983 43.8998C103.188 43.8998 107.068 44.8698 109.493 48.7498C111.433 51.8537 115.475 62.9764 117.253 68.1497L109.978 75.9097L110.463 76.8796L129.863 55.5397L136.653 59.4197C136.265 62.9117 129.378 78.658 125.983 86.0946C119.387 83.7666 112.888 86.4179 110.463 88.0346L104.643 86.5796Z" fill="white"/>
<path fill-rule="evenodd" clip-rule="evenodd" d="M96.1045 43.6572H96.3983C99.7996 43.6572 102.5 43.8994 104.661 44.6403C106.834 45.3852 108.456 46.6323 109.699 48.6212C110.684 50.1967 112.187 53.7771 113.66 57.5862C115.137 61.405 116.593 65.482 117.483 68.0708L117.53 68.2089L110.271 75.9522L110.522 76.4546L129.815 55.2326L136.912 59.2881L136.894 59.4464C136.793 60.353 136.279 62.0193 135.528 64.0975C134.773 66.1859 133.768 68.7178 132.67 71.3706C130.474 76.6767 127.902 82.4752 126.204 86.1953L126.112 86.3971L125.902 86.3232C119.404 84.0296 112.986 86.6444 110.598 88.2363L110.509 88.2958L104.435 86.7773L96.1045 43.6572ZM96.6923 44.1428L104.852 86.3818L110.419 87.7735C112.921 86.1452 119.313 83.5866 125.854 85.7934C127.551 82.0713 130.068 76.39 132.222 71.1851C133.318 68.5353 134.32 66.0111 135.072 63.9326C135.782 61.967 136.26 60.4241 136.392 59.5494L129.912 55.8467L110.405 77.3046L109.686 75.867L116.976 68.0904C116.084 65.5005 114.656 61.5057 113.208 57.7611C111.73 53.9396 110.243 50.4067 109.288 48.8782C108.106 46.9871 106.575 45.8092 104.504 45.0991C102.482 44.4059 99.9399 44.1568 96.6923 44.1428Z" fill="white"/>
<path fill-rule="evenodd" clip-rule="evenodd" d="M106.339 118.62L102.963 163.957L120.93 165.375L127.684 123.885L127.684 123.883C128.084 121.567 128.129 118.049 126.981 115.026C126.408 113.518 125.541 112.14 124.281 111.093C123.022 110.048 121.358 109.321 119.172 109.131C114.784 108.75 111.742 110.257 109.713 112.286C107.681 114.318 106.658 116.882 106.339 118.62ZM109.37 111.943C111.496 109.817 114.678 108.253 119.214 108.648C121.49 108.846 123.25 109.606 124.591 110.72C125.93 111.832 126.839 113.286 127.434 114.854C128.622 117.982 128.571 121.593 128.162 123.964C128.162 123.965 128.162 123.965 128.162 123.966L121.337 165.894L102.443 164.402L105.857 118.559L105.86 118.546C106.19 116.728 107.252 114.061 109.37 111.943Z" fill="white"/>
<path fill-rule="evenodd" clip-rule="evenodd" d="M106.567 164.422C106.701 164.413 106.816 164.514 106.825 164.648L107.325 172.142L107.108 172.178C106.256 172.321 104.292 173.421 103.914 176.816C103.526 180.314 102.458 187.336 101.973 190.407L101.971 190.418L101.969 190.428C101.899 190.708 101.903 191.118 102.119 191.449C102.324 191.766 102.76 192.067 103.673 192.067H106.307C107.285 192.067 108.185 191.531 108.651 190.672L115.62 177.834C116.386 176.424 116.031 174.667 114.778 173.664C114.636 173.551 114.583 173.359 114.647 173.188L117.511 165.549C117.558 165.424 117.698 165.36 117.823 165.407C117.949 165.454 118.012 165.594 117.965 165.719L115.117 173.315C116.524 174.469 116.917 176.462 116.046 178.066L109.077 190.903C108.526 191.919 107.463 192.552 106.307 192.552H103.673C102.647 192.552 102.032 192.206 101.712 191.714C101.405 191.242 101.406 190.688 101.495 190.321C101.981 187.243 103.045 180.244 103.432 176.762C103.806 173.398 105.683 172.052 106.813 171.748L106.341 164.68C106.332 164.547 106.434 164.431 106.567 164.422Z" fill="white"/>
<path fill-rule="evenodd" clip-rule="evenodd" d="M106.827 168.519C106.841 168.386 106.961 168.289 107.094 168.303L116.309 169.273C116.442 169.287 116.538 169.407 116.524 169.54C116.51 169.673 116.391 169.77 116.258 169.756L107.043 168.786C106.91 168.772 106.813 168.652 106.827 168.519Z" fill="white"/>
<path d="M113.373 182.609L103.188 179.214L102.218 185.519L110.463 188.429L113.373 182.609Z" fill="white"/>
<path fill-rule="evenodd" clip-rule="evenodd" d="M103.188 179.214L102.218 185.519L110.463 188.429L113.373 182.609L103.188 179.214ZM103.58 179.856L102.759 185.196L110.221 187.829L112.689 182.892L103.58 179.856Z" fill="white"/>
<path fill-rule="evenodd" clip-rule="evenodd" d="M97.1322 85.0695C97.1626 84.9391 97.293 84.858 97.4234 84.8885L111.971 88.283C113.116 88.5284 114.692 89.0728 115.645 89.9275C116.126 90.3588 116.473 90.8927 116.489 91.5279C116.506 92.1631 116.19 92.8359 115.485 93.5411L115.465 93.5608C113.782 95.2435 112.064 96.9614 110.335 97.8877C109.462 98.3554 108.57 98.6311 107.664 98.5907C106.753 98.55 105.854 98.1913 104.97 97.4337C103.609 96.2668 102.753 95.4524 102.236 94.9065C101.978 94.6339 101.801 94.4248 101.687 94.2697C101.64 94.206 101.601 94.1484 101.571 94.0971H95.4284C95.2944 94.0971 95.1859 93.9885 95.1859 93.8546C95.1859 93.7207 95.2944 93.6121 95.4284 93.6121H101.976V93.8257C101.977 93.8289 101.979 93.8328 101.982 93.8373C101.998 93.868 102.028 93.9153 102.077 93.982C102.175 94.1149 102.337 94.308 102.588 94.5729C103.09 95.1021 103.932 95.9044 105.286 97.0655C106.1 97.7629 106.898 98.071 107.685 98.1062C108.477 98.1415 109.282 97.9019 110.106 97.4602C111.765 96.5714 113.436 94.9042 115.142 93.1981C115.795 92.5453 116.016 91.9935 116.004 91.5405C115.993 91.0874 115.746 90.6696 115.321 90.2885C114.463 89.519 112.986 88.9965 111.867 88.7567L111.863 88.7558L97.3132 85.3608C97.1828 85.3304 97.1018 85.2 97.1322 85.0695Z" fill="white"/>
<path fill-rule="evenodd" clip-rule="evenodd" d="M137.955 51.6325C136.003 51.2142 133.976 51.8711 132.641 53.355L130.528 55.702C130.439 55.8016 130.286 55.8096 130.186 55.72C130.086 55.6304 130.078 55.4771 130.168 55.3776L132.28 53.0306C133.732 51.4177 135.935 50.7036 138.057 51.1583L141.554 51.9077C141.685 51.9358 141.768 52.0647 141.74 52.1956C141.712 52.3266 141.583 52.41 141.452 52.3819L137.955 51.6325Z" fill="white"/>
<path fill-rule="evenodd" clip-rule="evenodd" d="M141.857 45.6669C141.571 45.7135 141.324 45.877 141.19 46.0112L141.183 46.0181L134.878 51.8379C134.779 51.9288 134.626 51.9226 134.535 51.8242C134.444 51.7258 134.45 51.5724 134.549 51.4816L140.85 45.6647C141.04 45.4764 141.373 45.2543 141.779 45.1882C142.203 45.1192 142.686 45.2244 143.13 45.6683C143.409 45.9481 143.432 46.3509 143.357 46.7365C143.28 47.1288 143.091 47.5691 142.856 48.0042C142.384 48.8773 141.694 49.789 141.202 50.3626C141.115 50.4642 140.962 50.476 140.86 50.3889C140.759 50.3017 140.747 50.1486 140.834 50.0469C141.312 49.4888 141.98 48.606 142.43 47.7736C142.655 47.3559 142.818 46.9656 142.881 46.6436C142.945 46.3148 142.895 46.1194 142.787 46.0112C142.455 45.6791 142.129 45.6226 141.857 45.6669ZM149.851 48.5819C150.35 48.519 150.918 48.6072 151.375 49.0633C151.6 49.2885 151.725 49.5324 151.763 49.784C151.8 50.0336 151.748 50.269 151.654 50.4747C151.473 50.8747 151.123 51.195 150.859 51.372L144.738 56.0529C143.354 57.1112 141.523 57.3824 139.892 56.7707C139.178 56.5032 138.374 56.7483 137.931 57.3683L136.365 59.5607C136.288 59.6697 136.136 59.6949 136.027 59.6171C135.918 59.5392 135.893 59.3878 135.971 59.2788L137.537 57.0864C138.107 56.2877 139.143 55.972 140.062 56.3166C141.537 56.8696 143.192 56.6244 144.444 55.6677L150.577 50.9773L150.584 50.973C150.804 50.8258 151.08 50.5661 151.213 50.2744C151.277 50.1324 151.303 49.992 151.283 49.8556C151.263 49.7213 151.194 49.5691 151.032 49.4062C150.712 49.0863 150.31 49.0129 149.912 49.0631C149.508 49.1141 149.131 49.2911 148.913 49.4365L148.893 49.4496L143.051 51.8836C142.928 51.9351 142.786 51.8766 142.734 51.753C142.683 51.6294 142.741 51.4874 142.865 51.4359L148.664 49.0197C148.933 48.8447 149.37 48.6426 149.851 48.5819Z" fill="white"/>
<path fill-rule="evenodd" clip-rule="evenodd" d="M153.61 51.5871C154.307 51.6037 155.067 51.8133 155.313 52.5531C155.425 52.8882 155.426 53.1962 155.343 53.4714C155.26 53.7439 155.1 53.9692 154.912 54.1503C154.541 54.508 154.037 54.7176 153.687 54.805L153.676 54.8078L153.676 54.8075L143.976 56.7475C143.844 56.7738 143.717 56.6886 143.69 56.5573C143.664 56.426 143.749 56.2982 143.881 56.2719L153.575 54.3331C153.871 54.2581 154.286 54.0801 154.575 53.801C154.719 53.6628 154.825 53.5061 154.878 53.331C154.93 53.1586 154.935 52.9533 154.853 52.7064C154.712 52.2822 154.259 52.0877 153.598 52.0719C152.956 52.0567 152.234 52.2185 151.765 52.3748C151.638 52.4172 151.5 52.3485 151.458 52.2214C151.416 52.0944 151.484 51.9571 151.611 51.9147C152.113 51.7477 152.893 51.57 153.61 51.5871Z" fill="white"/>
<path fill-rule="evenodd" clip-rule="evenodd" d="M59.9596 99.4406C60.0888 99.4054 60.2222 99.4816 60.2574 99.6108L66.0745 120.94C66.8728 123.09 68.7185 126.325 71.6576 129.02C74.5976 131.716 78.6235 133.867 83.7883 133.867C94.1873 133.867 101.269 128.729 103.491 126.19C103.579 126.089 103.732 126.079 103.833 126.167C103.934 126.255 103.944 126.408 103.856 126.509C101.551 129.143 94.3413 134.352 83.7883 134.352C78.4773 134.352 74.339 132.137 71.3297 129.378C68.3241 126.621 66.4364 123.314 65.616 121.099L65.6123 121.089L59.7895 99.7384C59.7543 99.6092 59.8304 99.4759 59.9596 99.4406Z" fill="white"/>
<path fill-rule="evenodd" clip-rule="evenodd" d="M124.365 99.7247C123.451 98.2043 121.319 97.9585 120.017 99.1886C114.066 104.811 103.47 113.114 93.5435 115.431C90.5898 116.12 88.0928 115.883 86.0003 115.026C83.9101 114.171 82.2404 112.705 80.9273 110.963C78.3054 107.485 77.0833 102.879 76.7572 99.6993C76.7435 99.5661 76.8405 99.447 76.9737 99.4334C77.1069 99.4197 77.226 99.5166 77.2397 99.6498C77.5602 102.775 78.7631 107.287 81.3146 110.671C82.5881 112.361 84.1922 113.763 86.184 114.578C88.1736 115.392 90.567 115.627 93.4333 114.958C103.227 112.673 113.744 104.449 119.684 98.8361C121.198 97.4053 123.699 97.6741 124.78 99.4749C128.362 105.436 133.199 113.334 137.626 120.226C139.839 123.671 141.949 126.864 143.747 129.437C145.549 132.015 147.027 133.955 147.98 134.908C148.074 135.003 148.074 135.156 147.98 135.251C147.885 135.346 147.731 135.346 147.637 135.251C146.649 134.264 145.149 132.289 143.349 129.715C141.546 127.135 139.433 123.936 137.218 120.488C132.788 113.591 127.947 105.689 124.365 99.7247Z" fill="white"/>
<path fill-rule="evenodd" clip-rule="evenodd" d="M128.166 87.0646C128.166 86.9307 128.274 86.8221 128.408 86.8221C128.796 86.8221 129.325 86.9995 129.962 87.3881C130.606 87.7804 131.381 88.4011 132.269 89.3213C134.044 91.1617 136.279 94.2142 138.808 99.0777C143.851 108.774 152.87 125.1 156.75 132.051L156.858 132.246L139.983 143.661L127.722 125.515C127.647 125.404 127.677 125.254 127.787 125.179C127.898 125.104 128.049 125.133 128.124 125.244L140.113 142.988L156.218 132.093C152.281 125.036 143.377 108.916 138.378 99.3015C135.863 94.465 133.653 91.455 131.92 89.658C131.053 88.7594 130.309 88.1677 129.71 87.8022C129.104 87.4329 128.667 87.3071 128.408 87.3071C128.274 87.3071 128.166 87.1986 128.166 87.0646Z" fill="white"/>
<path fill-rule="evenodd" clip-rule="evenodd" d="M156.413 131.962C156.528 131.893 156.677 131.93 156.746 132.045L161.098 139.298L174.139 153.304L176.809 154.372C178.115 154.895 178.764 156.365 178.27 157.682C177.849 158.803 176.715 159.489 175.527 159.341L169.556 158.594L160.778 153.717L152.416 148.306V145.357L148.597 141.061C148.508 140.961 148.517 140.807 148.617 140.718C148.717 140.629 148.87 140.638 148.959 140.738L152.901 145.172V148.043L161.028 153.301L169.71 158.125L175.587 158.859C176.552 158.98 177.474 158.423 177.816 157.512C178.217 156.442 177.69 155.247 176.628 154.823L173.858 153.714L160.708 139.591L156.33 132.294C156.261 132.179 156.299 132.031 156.413 131.962Z" fill="white"/>
<path fill-rule="evenodd" clip-rule="evenodd" d="M161.107 139.313C161.179 139.426 161.147 139.576 161.034 139.648L154.244 144.013C154.132 144.086 153.982 144.053 153.909 143.941C153.837 143.828 153.869 143.678 153.982 143.605L160.772 139.24C160.885 139.168 161.035 139.201 161.107 139.313Z" fill="white"/>
<path d="M162.843 160.784C161.291 147.592 155.406 146.881 152.658 148.174L156.538 162.239L162.843 160.784Z" fill="white"/>
<path fill-rule="evenodd" clip-rule="evenodd" d="M152.948 148.312L156.71 161.951L162.576 160.597C161.789 154.168 159.962 150.823 158.044 149.234C156.207 147.711 154.253 147.772 152.948 148.312ZM158.354 148.861C160.433 150.584 162.305 154.134 163.084 160.756L163.109 160.972L156.366 162.528L152.37 148.042L152.555 147.955C154.003 147.274 156.264 147.128 158.354 148.861Z" fill="white"/>
<path d="M165.753 156.419L169.633 148.659L173.998 153.509L172.058 158.844L169.633 158.359L165.753 156.419Z" fill="white"/>
<path fill-rule="evenodd" clip-rule="evenodd" d="M263.226 10.2141C261.605 10.6603 260.242 11.4851 259.559 12.5094C257.169 16.0943 252.936 16.9824 251.113 16.9824C250.979 16.9824 250.87 16.8738 250.87 16.7399C250.87 16.606 250.979 16.4974 251.113 16.4974C252.846 16.4974 256.89 15.6395 259.156 12.2404C259.928 11.0823 261.415 10.2096 263.097 9.74644C264.786 9.28184 266.712 9.21749 268.399 9.71743C270.091 10.2188 271.554 11.2929 272.269 13.1043C272.981 14.9083 272.934 17.3994 271.71 20.7041C271.663 20.8297 271.524 20.8938 271.398 20.8473C271.273 20.8008 271.209 20.6613 271.255 20.5357C272.456 17.2929 272.47 14.934 271.818 13.2824C271.169 11.6382 269.843 10.651 268.261 10.1824C266.675 9.71239 264.842 9.76928 263.226 10.2141Z" fill="white"/>
<path fill-rule="evenodd" clip-rule="evenodd" d="M253.337 10.0356C255.256 9.88286 257.23 10.2783 258.464 10.6899C258.591 10.7323 258.66 10.8696 258.618 10.9966C258.575 11.1237 258.438 11.1924 258.311 11.15C257.121 10.7533 255.214 10.3727 253.375 10.5191C251.535 10.6655 249.813 11.333 248.9 12.9777C247.855 14.8577 247.925 16.7308 247.996 18.6358C248.005 18.87 248.014 19.1046 248.021 19.3399C248.079 21.393 247.972 23.4563 246.181 25.3998C247.041 25.7886 248.312 26.0478 249.632 25.6963C251.095 25.3066 252.66 24.1551 253.8 21.4944C253.853 21.3713 253.995 21.3143 254.118 21.367C254.241 21.4198 254.298 21.5624 254.246 21.6855C253.058 24.4568 251.389 25.7302 249.756 26.165C248.137 26.5964 246.594 26.1912 245.662 25.6828L245.377 25.5276L245.606 25.2984C247.473 23.4321 247.596 21.459 247.536 19.3537C247.529 19.1229 247.52 18.8901 247.511 18.6555C247.439 16.7602 247.361 14.7478 248.476 12.7422C249.502 10.895 251.418 10.1883 253.337 10.0356Z" fill="white"/>
<path fill-rule="evenodd" clip-rule="evenodd" d="M249.581 16.9948C249.708 16.9525 249.845 17.0211 249.888 17.1482C250.201 18.089 250.909 19.4304 252 20.3892C253.082 21.3394 254.533 21.9111 256.378 21.3576C258.196 20.8121 259.228 20.0002 260.173 19.2567C260.463 19.029 260.744 18.8077 261.037 18.6024C261.662 18.1648 262.333 17.8115 263.229 17.6675C264.121 17.5241 265.217 17.591 266.691 17.9596C266.821 17.9921 266.9 18.1237 266.868 18.2537C266.835 18.3836 266.704 18.4626 266.574 18.4301C265.138 18.0712 264.112 18.0168 263.306 18.1463C262.505 18.2751 261.903 18.5886 261.315 18.9998C261.05 19.1856 260.786 19.3938 260.507 19.6133C259.554 20.3643 258.432 21.2476 256.517 21.8221C254.482 22.4326 252.862 21.7918 251.68 20.7535C250.508 19.7239 249.761 18.3007 249.428 17.3015C249.385 17.1745 249.454 17.0372 249.581 16.9948Z" fill="white"/>
<path fill-rule="evenodd" clip-rule="evenodd" d="M275.016 17.9763C274.528 18.0041 273.997 18.1787 273.531 18.4118C273.411 18.4717 273.266 18.4232 273.206 18.3034C273.146 18.1836 273.194 18.0379 273.314 17.978C273.818 17.7261 274.415 17.5248 274.988 17.4921C275.563 17.4592 276.144 17.5961 276.561 18.0563C276.974 18.5118 277.183 19.2363 277.13 20.2806C277.076 21.3274 276.758 22.7294 276.075 24.5837C274.71 28.2879 273.284 30.6981 272.046 32.2075C271.427 32.9622 270.853 33.4943 270.355 33.8501C269.861 34.2031 269.428 34.3919 269.092 34.4399L268.983 34.4555L265.675 31.6201L264.864 32.4314L264.501 32.111C265.059 31.3944 265.768 30.28 266.099 29.2627C266.265 28.7524 266.327 28.2937 266.251 27.9309C266.179 27.5861 265.981 27.3134 265.573 27.1501C265.119 26.9686 264.775 26.9446 264.517 27.0011C264.262 27.0571 264.066 27.197 263.913 27.3904C263.597 27.79 263.48 28.4053 263.48 28.8649L262.998 28.8992C262.831 27.73 262.895 24.8186 264.491 22.4254C265.24 21.3023 265.289 20.4914 265.105 19.9453C264.919 19.3893 264.472 19.0469 264.118 18.9051C263.993 18.8554 263.933 18.7142 263.982 18.5899C264.032 18.4655 264.173 18.405 264.298 18.4548C264.752 18.6363 265.323 19.0699 265.565 19.7911C265.81 20.5221 265.698 21.4895 264.894 22.6944C263.9 24.1863 263.533 25.9027 263.443 27.2126C263.471 27.1706 263.501 27.1296 263.532 27.0899C263.743 26.8226 264.032 26.6109 264.413 26.5274C264.792 26.4445 265.236 26.4932 265.753 26.6997C266.314 26.9245 266.621 27.3307 266.726 27.8316C266.827 28.3146 266.737 28.8683 266.56 29.4129C266.379 29.9703 266.095 30.5467 265.785 31.0756L269.127 33.9396C269.355 33.8838 269.677 33.7386 270.073 33.4554C270.53 33.1291 271.073 32.6285 271.671 31.9C272.866 30.4428 274.269 28.0839 275.62 24.4161C276.295 22.5844 276.595 21.2341 276.645 20.256C276.695 19.2754 276.492 18.7026 276.201 18.382C275.915 18.0663 275.501 17.9485 275.016 17.9763ZM254.098 21.8443C254.225 21.8857 254.295 22.0225 254.253 22.1499C253.206 25.3733 252.05 30.1488 251.973 34.0106C251.935 35.9465 252.17 37.6155 252.794 38.7447C253.103 39.3043 253.504 39.7248 254.01 39.9853C254.517 40.2458 255.148 40.3565 255.934 40.264C259.212 39.8784 261.32 39.1576 262.622 38.4262C263.936 37.6876 264.391 36.9615 264.453 36.585C264.475 36.4529 264.6 36.3636 264.733 36.3857C264.865 36.4077 264.954 36.5326 264.932 36.6647C264.833 37.2582 264.221 38.0841 262.859 38.849C261.485 39.6211 259.31 40.3552 255.991 40.7457C255.128 40.8472 254.397 40.7295 253.788 40.4166C253.18 40.1037 252.715 39.6057 252.369 38.9792C251.682 37.7359 251.45 35.9614 251.489 34.0011C251.566 30.0706 252.738 25.2431 253.792 22C253.833 21.8726 253.97 21.8029 254.098 21.8443Z" fill="white"/>
<path fill-rule="evenodd" clip-rule="evenodd" d="M255.928 26.6848C256.061 26.6659 256.184 26.758 256.203 26.8906C256.365 28.0292 256.215 30.7846 254.416 33.1261L256.538 33.9747C256.662 34.0245 256.723 34.1656 256.673 34.2899C256.623 34.4143 256.482 34.4748 256.358 34.425L253.623 33.3311L253.836 33.0746C255.722 30.8123 255.877 28.0417 255.723 26.9592C255.704 26.8266 255.796 26.7038 255.928 26.6848Z" fill="white"/>
<path fill-rule="evenodd" clip-rule="evenodd" d="M269.996 33.4745C270.129 33.4572 270.251 33.5508 270.268 33.6836L271.759 45.1124H258.062L259.61 39.9502C259.649 39.822 259.784 39.7492 259.912 39.7876C260.041 39.8261 260.113 39.9613 260.075 40.0896L258.714 44.6274H271.206L269.787 33.7463C269.77 33.6135 269.863 33.4918 269.996 33.4745Z" fill="white"/>
<path fill-rule="evenodd" clip-rule="evenodd" d="M258.464 44.6397C258.591 44.6821 258.66 44.8194 258.618 44.9464L256.914 50.059L263.097 45.6424C263.206 45.5646 263.357 45.5898 263.435 45.6988C263.513 45.8078 263.488 45.9592 263.379 46.0371L255.982 51.3205L258.158 44.7931C258.2 44.666 258.337 44.5974 258.464 44.6397Z" fill="white"/>
<path fill-rule="evenodd" clip-rule="evenodd" d="M270.897 44.649C271.019 44.5936 271.163 44.6475 271.218 44.7694L273.938 50.7518L265.064 46.0541C264.946 45.9914 264.901 45.8447 264.963 45.7263C265.026 45.6079 265.173 45.5628 265.291 45.6254L272.908 49.6577L270.777 44.9701C270.721 44.8482 270.775 44.7044 270.897 44.649Z" fill="white"/>
<path fill-rule="evenodd" clip-rule="evenodd" d="M282.394 46.5154C278.61 45.0887 274.307 44.8711 271.503 45.1115C271.37 45.1229 271.252 45.024 271.241 44.8906C271.23 44.7571 271.328 44.6397 271.462 44.6283C274.316 44.3836 278.695 44.6025 282.565 46.0616C286.44 47.5224 289.841 50.2436 290.637 55.015C292.136 64.0127 294.059 74.9432 294.916 79.7528C295.772 78.6095 296.732 77.3182 297.744 75.9475C301.221 71.2405 305.326 65.5998 308.074 61.8015L305.144 52.5204L305.308 52.4219C305.746 52.1592 306.462 51.9156 307.191 52.0649C307.942 52.219 308.648 52.7788 309.058 54.0081C309.1 54.1352 309.031 54.2725 308.904 54.3149C308.777 54.3572 308.64 54.2886 308.597 54.1615C308.231 53.0628 307.643 52.6527 307.093 52.54C306.6 52.4389 306.092 52.5678 305.724 52.7475L308.61 61.8881L308.539 61.9869C305.79 65.7864 301.643 71.4859 298.134 76.2357C296.38 78.6104 294.785 80.7488 293.603 82.2938C293.013 83.066 292.524 83.6918 292.171 84.1252C291.994 84.3414 291.849 84.5127 291.74 84.6312C291.687 84.6898 291.638 84.7399 291.596 84.7769C291.576 84.795 291.552 84.8149 291.526 84.8317C291.513 84.8401 291.495 84.8508 291.474 84.86C291.454 84.8683 291.416 84.8822 291.368 84.8822C291.319 84.8822 291.248 84.8709 291.184 84.8172C291.118 84.762 291.094 84.6904 291.087 84.6373C291.076 84.5486 291.106 84.4657 291.124 84.4206C291.168 84.313 291.251 84.1758 291.351 84.0268C291.557 83.722 291.877 83.3059 292.246 82.8503C292.956 81.9729 293.859 80.9287 294.503 80.2016C293.682 75.5989 291.697 64.3296 290.158 55.0947C289.402 50.5541 286.174 47.9403 282.394 46.5154Z" fill="white"/>
<path fill-rule="evenodd" clip-rule="evenodd" d="M277.77 62.5729C277.904 62.5634 278.02 62.6639 278.029 62.7975L278.498 69.3622H292.822C292.956 69.3622 293.065 69.4708 293.065 69.6047C293.065 69.7387 292.956 69.8472 292.822 69.8472H278.047L277.546 62.8321C277.536 62.6985 277.637 62.5824 277.77 62.5729Z" fill="white"/>
<path fill-rule="evenodd" clip-rule="evenodd" d="M278.262 69.3624C278.396 69.3567 278.509 69.4606 278.515 69.5944C278.757 75.3219 279.725 83.9093 281.84 91.0577C282.897 94.6333 284.237 97.8316 285.903 100.131C287.569 102.43 289.536 103.797 291.853 103.797H291.899L291.943 103.814C293.376 104.388 297.473 103.896 301.336 96.1711C305.215 88.4126 311.358 75.8038 313.944 70.4689C314.003 70.3484 314.148 70.298 314.268 70.3565C314.389 70.4149 314.439 70.56 314.381 70.6805C311.794 76.0155 305.65 88.6266 301.769 96.388C297.903 104.12 293.632 104.971 291.807 104.282C289.293 104.264 287.214 102.765 285.51 100.416C283.797 98.0518 282.439 94.7935 281.374 91.1953C279.245 83.9958 278.273 75.3657 278.03 69.6149C278.025 69.4811 278.129 69.3681 278.262 69.3624Z" fill="white"/>
<path fill-rule="evenodd" clip-rule="evenodd" d="M320.961 52.2957L321.124 52.4583C321.871 53.2052 322.863 54.5194 323.423 56.0506C323.985 57.5847 324.121 59.3666 323.098 61.0033C321.863 62.9789 320.489 63.9929 319.332 64.3786C318.755 64.571 318.226 64.6084 317.798 64.5227C317.374 64.4379 317.021 64.2247 316.856 63.8932L316.77 63.7214L316.939 63.5799L316.304 61.7686L316.508 61.5932L315.825 59.3404L315.987 59.1984L315.854 56.8925L320.961 52.2957ZM316.45 58.7938L319.823 55.8423C319.924 55.7541 320.077 55.7643 320.165 55.8651C320.253 55.9659 320.243 56.1191 320.142 56.2073L316.38 59.4992L316.911 61.2485L319.825 58.7507C319.926 58.6635 320.079 58.6753 320.167 58.777C320.254 58.8787 320.242 59.0317 320.14 59.1189L316.871 61.921L317.337 63.2485L319.827 61.1735C319.93 61.0877 320.083 61.1016 320.169 61.2045C320.254 61.3074 320.241 61.4603 320.138 61.5461L317.404 63.8242C317.509 63.9199 317.669 64.0024 317.893 64.0471C318.223 64.113 318.664 64.0898 319.178 63.9185C320.204 63.5766 321.497 62.6506 322.687 60.7463C323.604 59.279 323.498 57.6659 322.968 56.2172C322.476 54.8726 321.626 53.6954 320.941 52.9664L316.351 57.0971L316.45 58.7938Z" fill="white"/>
<path fill-rule="evenodd" clip-rule="evenodd" d="M258.627 44.8299C258.649 44.962 258.56 45.0869 258.428 45.1089L246.778 47.0506L246.768 47.0514C244.929 47.2046 240.749 49.0082 239.223 55.1135C237.741 61.0401 236.142 66.5543 235.435 68.8771H242.868C243.002 68.8771 243.11 68.9857 243.11 69.1196C243.11 69.2536 243.002 69.3621 242.868 69.3621H234.779L234.876 69.0483C235.522 66.9502 237.202 61.1991 238.752 54.9959C240.328 48.6956 244.672 46.7446 246.718 46.5689L258.348 44.6305C258.48 44.6085 258.605 44.6978 258.627 44.8299Z" fill="white"/>
<path fill-rule="evenodd" clip-rule="evenodd" d="M244.898 60.6496C245.022 60.6994 245.083 60.8405 245.033 60.9648C244.394 62.5627 243.6 65.2809 243.303 68.2226C243.006 71.1689 243.212 74.3047 244.536 76.7647C246.251 79.95 247.833 85.3139 248.926 90.8981C249.996 96.371 250.604 102.089 250.399 106.222H287.702L287.247 102.126C287.232 101.993 287.328 101.873 287.461 101.859C287.594 101.844 287.714 101.94 287.729 102.073L288.243 106.707H249.886L249.901 106.45C250.141 102.357 249.539 96.559 248.45 90.9912C247.36 85.4205 245.789 80.1144 244.109 76.9947C242.718 74.4107 242.519 71.1607 242.82 68.1739C243.122 65.1825 243.928 62.4201 244.583 60.7847C244.632 60.6604 244.773 60.5999 244.898 60.6496Z" fill="white"/>
<path fill-rule="evenodd" clip-rule="evenodd" d="M263.831 47.5629C263.951 47.6228 263.999 47.7684 263.94 47.8882C263.94 47.887 263.94 47.888 263.939 47.8917C263.936 47.9032 263.925 47.9404 263.91 48.0194C263.892 48.1119 263.873 48.2391 263.851 48.4009C263.808 48.7241 263.759 49.175 263.705 49.7416C263.599 50.8741 263.476 52.4611 263.351 54.3959C263.101 58.2653 262.843 63.5214 262.692 69.3079C262.389 80.8871 262.511 94.568 263.962 103.516C263.983 103.648 263.894 103.772 263.761 103.794C263.629 103.815 263.505 103.726 263.483 103.593C262.024 94.5962 261.904 80.8747 262.207 69.2952C262.359 63.5024 262.617 58.2401 262.867 54.3647C262.992 52.4271 263.115 50.835 263.223 49.6961C263.276 49.1269 263.326 48.6689 263.37 48.3368C263.393 48.171 263.414 48.034 263.433 47.929C263.451 47.8362 263.473 47.7369 263.506 47.6713C263.566 47.5515 263.711 47.503 263.831 47.5629Z" fill="white"/>
<path fill-rule="evenodd" clip-rule="evenodd" d="M235.667 68.8887C235.794 68.9295 235.865 69.066 235.824 69.1935C234.547 73.1832 231.819 83.2016 231.011 91.6542L232.838 93.1836L232.537 93.5635L230.489 92.0274L230.501 91.8926C230.502 91.8826 230.503 91.8727 230.504 91.8627L208.825 73.7229L190.713 72.8393C189.93 72.8012 189.275 73.425 189.275 74.2081C189.275 74.8199 189.681 75.3576 190.269 75.5257L202.76 79.0945L219.295 101.951C220.005 102.818 221.362 104.079 223.11 105.027C224.862 105.976 226.989 106.602 229.248 106.225C229.455 106.191 229.659 106.157 229.861 106.125C232.503 105.695 234.716 105.334 237.252 103.129C240 100.739 243.135 96.1721 247.499 86.9608C247.556 86.8397 247.701 86.7881 247.822 86.8454C247.943 86.9027 247.994 87.0473 247.937 87.1684C243.57 96.387 240.4 101.035 237.571 103.495C234.928 105.793 232.591 106.173 229.949 106.602C229.744 106.635 229.537 106.669 229.328 106.704C226.93 107.103 224.693 106.436 222.879 105.453C221.067 104.471 219.661 103.165 218.915 102.253L218.911 102.247L202.466 79.5147L190.136 75.992C189.34 75.7644 188.79 75.0364 188.79 74.2081C188.79 73.1479 189.677 72.3033 190.736 72.3549L209.011 73.2464L230.56 91.2774C231.412 82.8467 234.097 72.9983 235.362 69.0457C235.403 68.9182 235.539 68.8479 235.667 68.8887Z" fill="white"/>
<path fill-rule="evenodd" clip-rule="evenodd" d="M242.413 172.184C242.546 172.2 242.64 172.321 242.623 172.454L242.149 176.249L244.638 180.231L222.624 199.493C221.745 200.262 220.403 200.142 219.673 199.23C219.152 198.579 219.078 197.677 219.484 196.949L228.072 181.582L227.591 172.437C227.584 172.303 227.686 172.189 227.82 172.182C227.954 172.175 228.068 172.278 228.075 172.412L228.564 181.696L219.908 197.186C219.597 197.742 219.654 198.43 220.052 198.927C220.609 199.624 221.634 199.715 222.305 199.128L244.008 180.138L241.646 176.36L242.142 172.394C242.159 172.261 242.28 172.167 242.413 172.184Z" fill="white"/>
<path fill-rule="evenodd" clip-rule="evenodd" d="M245.475 182.45C245.563 182.55 245.553 182.704 245.452 182.792L237.522 189.731L235.906 188.116C235.812 188.021 235.812 187.867 235.906 187.773C236.001 187.678 236.155 187.678 236.249 187.773L237.544 189.067L245.133 182.427C245.234 182.339 245.387 182.349 245.475 182.45Z" fill="white"/>
<path fill-rule="evenodd" clip-rule="evenodd" d="M229.202 174.307C228.605 174.98 228.229 176.047 228.071 176.837C228.044 176.968 227.917 177.053 227.785 177.027C227.654 177.001 227.569 176.873 227.595 176.742C227.76 175.915 228.16 174.751 228.84 173.985C229.183 173.599 229.611 173.298 230.13 173.213C230.653 173.126 231.228 173.265 231.847 173.677C233.117 174.524 233.444 176.008 233.374 177.444C233.304 178.866 232.844 180.308 232.435 181.219C232.4 181.556 232.402 181.928 232.462 182.258C232.526 182.606 232.649 182.87 232.826 183.017C232.987 183.151 233.237 183.224 233.657 183.092C234.087 182.956 234.667 182.612 235.433 181.942C236.37 181.122 236.798 180.343 237.004 179.611C237.178 178.992 237.197 178.402 237.217 177.81C237.221 177.688 237.225 177.567 237.23 177.446C237.26 176.742 237.337 176.031 237.779 175.373C238.22 174.715 239.001 174.145 240.36 173.651C240.486 173.606 240.625 173.671 240.671 173.796C240.716 173.922 240.652 174.061 240.526 174.107C239.217 174.583 238.543 175.104 238.181 175.644C237.819 176.183 237.744 176.776 237.714 177.467C237.71 177.578 237.706 177.693 237.702 177.81C237.683 178.403 237.662 179.061 237.471 179.742C237.237 180.571 236.756 181.429 235.752 182.307C234.966 182.995 234.326 183.39 233.803 183.554C233.27 183.722 232.836 183.656 232.516 183.39C232.212 183.137 232.058 182.74 231.985 182.345C231.911 181.945 231.915 181.508 231.957 181.127L231.961 181.089L231.977 181.054C232.372 180.184 232.822 178.784 232.889 177.42C232.956 176.05 232.637 174.787 231.578 174.081C231.034 173.718 230.582 173.63 230.209 173.691C229.833 173.753 229.498 173.974 229.202 174.307Z" fill="white"/>
<path fill-rule="evenodd" clip-rule="evenodd" d="M225.65 186.489C225.65 186.355 225.759 186.247 225.893 186.247H230.258C230.392 186.247 230.5 186.355 230.5 186.489C230.5 186.623 230.392 186.732 230.258 186.732H225.893C225.759 186.732 225.65 186.623 225.65 186.489Z" fill="white"/>
<path fill-rule="evenodd" clip-rule="evenodd" d="M224.195 188.429C224.195 188.295 224.304 188.187 224.438 188.187H228.803C228.937 188.187 229.045 188.295 229.045 188.429C229.045 188.563 228.937 188.672 228.803 188.672H224.438C224.304 188.672 224.195 188.563 224.195 188.429Z" fill="white"/>
<path fill-rule="evenodd" clip-rule="evenodd" d="M222.74 190.854C222.74 190.72 222.849 190.612 222.983 190.612H226.863C226.997 190.612 227.105 190.72 227.105 190.854C227.105 190.988 226.997 191.097 226.863 191.097H222.983C222.849 191.097 222.74 190.988 222.74 190.854Z" fill="white"/>
<path d="M201.643 171.454L223.953 150.114L237.048 109.375C224.244 111.315 214.899 121.5 211.828 126.35L187.578 161.269L201.643 171.454Z" fill="white"/>
<path fill-rule="evenodd" clip-rule="evenodd" d="M237.398 109.076L224.165 150.247L201.664 171.769L187.243 161.326L211.626 126.215C213.177 123.767 216.299 119.99 220.638 116.58C224.981 113.168 230.556 110.113 237.011 109.135L237.398 109.076ZM220.938 116.961C216.639 120.34 213.554 124.078 212.033 126.479L212.027 126.488L187.913 161.212L201.621 171.139L223.741 149.982L236.696 109.676C230.511 110.699 225.148 113.653 220.938 116.961Z" fill="white"/>
<path fill-rule="evenodd" clip-rule="evenodd" d="M188.221 161.57C188.322 161.657 188.334 161.81 188.247 161.912L182.388 168.748L166.498 174.928C165.707 175.235 165.297 176.109 165.565 176.914C165.782 177.564 166.39 178.002 167.075 178.002H195.129C195.312 176.852 195.721 175.172 196.401 173.613C197.117 171.968 198.16 170.397 199.607 169.776C199.73 169.724 199.873 169.781 199.926 169.904C199.979 170.027 199.922 170.169 199.798 170.222C198.53 170.766 197.552 172.185 196.846 173.806C196.145 175.415 195.737 177.164 195.578 178.279L195.548 178.487H167.075C166.181 178.487 165.388 177.915 165.105 177.067C164.755 176.017 165.29 174.877 166.322 174.476L182.098 168.34L187.879 161.597C187.966 161.495 188.119 161.483 188.221 161.57Z" fill="white"/>
<path fill-rule="evenodd" clip-rule="evenodd" d="M188.293 163.811C187.563 163.659 186.732 163.773 186.19 163.928C186.061 163.964 185.927 163.89 185.89 163.761C185.853 163.632 185.928 163.498 186.056 163.461C186.646 163.293 187.56 163.163 188.391 163.336C188.809 163.422 189.217 163.588 189.55 163.874C189.887 164.164 190.134 164.566 190.241 165.102C190.453 166.162 190.052 167.16 189.499 167.955C188.945 168.752 188.218 169.379 187.713 169.716L187.704 169.722L187.696 169.726C186.979 170.124 186.044 170.784 185.529 171.467C185.27 171.81 185.143 172.125 185.16 172.395C185.176 172.648 185.324 172.923 185.763 173.186C186.257 173.483 186.941 173.382 187.821 172.991C188.533 172.674 189.31 172.198 190.125 171.698C190.303 171.589 190.484 171.478 190.665 171.368C191.664 170.763 192.705 170.17 193.687 169.888C194.676 169.603 195.65 169.62 196.463 170.298C196.566 170.384 196.58 170.537 196.494 170.64C196.409 170.742 196.256 170.756 196.153 170.671C195.511 170.136 194.727 170.093 193.821 170.354C192.909 170.616 191.919 171.176 190.917 171.783C190.741 171.889 190.565 171.997 190.389 172.105C189.574 172.605 188.762 173.103 188.018 173.434C187.124 173.831 186.231 174.033 185.513 173.602C184.982 173.284 184.705 172.884 184.676 172.426C184.648 171.986 184.854 171.556 185.141 171.175C185.715 170.414 186.714 169.718 187.452 169.307C187.916 168.996 188.59 168.413 189.101 167.678C189.615 166.938 189.941 166.076 189.765 165.197C189.678 164.763 189.485 164.458 189.234 164.242C188.98 164.023 188.655 163.886 188.293 163.811Z" fill="white"/>
<path fill-rule="evenodd" clip-rule="evenodd" d="M184.183 178.002C184.317 178.002 184.425 178.11 184.425 178.244V180.427H194.853C194.987 180.427 195.095 180.535 195.095 180.669C195.095 180.803 194.987 180.912 194.853 180.912H183.94V178.244C183.94 178.11 184.049 178.002 184.183 178.002Z" fill="white"/>
<path fill-rule="evenodd" clip-rule="evenodd" d="M172.357 172.269C172.442 172.166 172.595 172.152 172.698 172.238L175.608 174.663C175.711 174.749 175.725 174.902 175.639 175.005C175.554 175.107 175.401 175.121 175.298 175.036L172.388 172.611C172.285 172.525 172.271 172.372 172.357 172.269Z" fill="white"/>
<path fill-rule="evenodd" clip-rule="evenodd" d="M175.282 171.283C175.376 171.188 175.53 171.188 175.624 171.283L178.534 174.193C178.629 174.288 178.629 174.441 178.534 174.536C178.44 174.63 178.286 174.63 178.191 174.536L175.282 171.626C175.187 171.531 175.187 171.378 175.282 171.283Z" fill="white"/>
<path fill-rule="evenodd" clip-rule="evenodd" d="M177.209 170.326C177.296 170.225 177.449 170.213 177.551 170.3L180.946 173.21C181.048 173.297 181.059 173.45 180.972 173.552C180.885 173.654 180.732 173.665 180.63 173.578L177.235 170.668C177.134 170.581 177.122 170.428 177.209 170.326Z" fill="white"/>
<path fill-rule="evenodd" clip-rule="evenodd" d="M221.201 136.351C221.303 136.439 221.314 136.592 221.226 136.693L196.491 165.308C196.404 165.409 196.251 165.42 196.149 165.333C196.048 165.245 196.037 165.092 196.125 164.991L220.859 136.376C220.947 136.275 221.1 136.263 221.201 136.351Z" fill="black"/>
<path fill-rule="evenodd" clip-rule="evenodd" d="M53.961 134.109C53.961 133.976 54.0696 133.867 54.2035 133.867H105.128C105.262 133.867 105.371 133.976 105.371 134.109C105.371 134.243 105.262 134.352 105.128 134.352H54.2035C54.0696 134.352 53.961 134.243 53.961 134.109Z" fill="white"/>
<path fill-rule="evenodd" clip-rule="evenodd" d="M126.226 134.109C126.226 133.976 126.334 133.867 126.468 133.867H133.743C133.877 133.867 133.986 133.976 133.986 134.109C133.986 134.243 133.877 134.352 133.743 134.352H126.468C126.334 134.352 126.226 134.243 126.226 134.109Z" fill="white"/>
<path fill-rule="evenodd" clip-rule="evenodd" d="M157.751 134.109C157.751 133.976 157.859 133.867 157.993 133.867H206.493C206.627 133.867 206.735 133.976 206.735 134.109C206.735 134.243 206.627 134.352 206.493 134.352H157.993C157.859 134.352 157.751 134.243 157.751 134.109Z" fill="white"/>
<path fill-rule="evenodd" clip-rule="evenodd" d="M268.815 134.109C268.815 133.976 268.924 133.867 269.058 133.867H294.278C294.411 133.867 294.52 133.976 294.52 134.109C294.52 134.243 294.411 134.352 294.278 134.352H269.058C268.924 134.352 268.815 134.243 268.815 134.109Z" fill="white"/>
<path d="M267.603 134.594C286.227 129.938 288.619 113.901 287.488 106.464H250.143L237.048 109.374C222.304 112.866 220.558 126.026 221.528 132.169L227.348 172.424H243.353L244.323 134.594H267.603Z" fill="white"/>
<path fill-rule="evenodd" clip-rule="evenodd" d="M250.116 106.222H287.696L287.727 106.428C288.299 110.188 287.981 116.109 285.17 121.681C282.354 127.264 277.043 132.484 267.661 134.83L267.632 134.837H244.559L243.589 172.667H227.138L221.288 132.207C221.288 132.207 221.288 132.206 221.288 132.206C220.797 129.095 220.993 124.218 223.176 119.673C225.365 115.115 229.546 110.902 236.992 109.139L236.995 109.138L250.116 106.222ZM250.169 106.707L237.104 109.611C237.103 109.611 237.102 109.611 237.102 109.611C229.805 111.34 225.741 115.452 223.614 119.883C221.48 124.325 221.288 129.099 221.767 132.132L221.768 132.135L227.558 172.182H243.116L244.086 134.352H267.573C276.797 132.038 281.986 126.916 284.737 121.463C287.444 116.095 287.795 110.392 287.278 106.707H250.169Z" fill="white"/>
<path fill-rule="evenodd" clip-rule="evenodd" d="M271.992 108.648C272.125 108.662 272.222 108.78 272.209 108.914C271.869 112.312 267.777 118.737 254.5 118.347C246.307 118.106 240.81 120.515 237.475 124.445C234.135 128.381 232.928 133.887 233.409 139.91C234.186 149.612 235.026 162.062 235.35 167.074C235.358 167.207 235.257 167.323 235.123 167.331C234.99 167.34 234.874 167.239 234.866 167.105C234.542 162.094 233.702 149.647 232.926 139.949C232.438 133.847 233.655 128.198 237.105 124.131C240.561 120.059 246.218 117.618 254.515 117.862C267.622 118.248 271.419 111.934 271.726 108.865C271.74 108.732 271.858 108.635 271.992 108.648Z" fill="black"/>
<g clip-path="url(#clip0_2293_1999)">
<path d="M211.247 62.4734L208 59.2467V46.8334L206.467 44.0134C206.354 43.7984 206.184 43.6184 205.976 43.4928C205.768 43.3672 205.53 43.3008 205.287 43.3008C205.044 43.3008 204.805 43.3672 204.597 43.4928C204.389 43.6184 204.22 43.7984 204.107 44.0134L202.667 46.84V53.94L190.473 41.8067C190.38 41.7127 190.261 41.6486 190.131 41.6225C190.001 41.5965 189.867 41.6097 189.744 41.6605C189.622 41.7112 189.518 41.7973 189.444 41.9076C189.371 42.018 189.333 42.1476 189.333 42.28V47.6667H190.78V48.7334H189.333V53H190.78V54.0667H189.333V58.5H190.78V59.5667H189.333V62.9467C189.333 63.1235 189.404 63.2931 189.529 63.4181C189.654 63.5431 189.823 63.6134 190 63.6134H210.773C210.906 63.6141 211.035 63.5755 211.146 63.5023C211.256 63.4291 211.342 63.3247 211.393 63.2024C211.444 63.0801 211.457 62.9454 211.431 62.8156C211.405 62.6858 211.341 62.5666 211.247 62.4734ZM194.667 58.3334V52.2934L200.713 58.3334H194.667ZM206.667 59.74H204V58.12H206.667V59.74ZM206.667 57.0734H204V47.1667L205.293 44.6534L206.667 47.1734V57.0734Z" fill="white"/>
</g>
<path d="M140.296 38.6021L146.66 32.2381M154.674 29.4081L152.769 35.1241C152.738 35.2155 152.686 35.2982 152.617 35.3652C152.548 35.4322 152.463 35.4816 152.371 35.5091L140.693 38.9811C140.588 39.0123 140.476 39.0141 140.37 38.9862C140.264 38.9584 140.167 38.9019 140.091 38.823C140.015 38.7442 139.961 38.6459 139.937 38.5388C139.913 38.4318 139.918 38.3202 139.953 38.2161L143.745 26.8421C143.772 26.7604 143.817 26.6855 143.875 26.6226C143.934 26.5596 144.005 26.51 144.085 26.4771L149.472 24.2591C149.582 24.2138 149.702 24.202 149.818 24.2252C149.934 24.2483 150.041 24.3053 150.125 24.3891L154.529 28.7941C154.608 28.8728 154.663 28.972 154.689 29.0805C154.714 29.1889 154.709 29.3023 154.674 29.4081Z" stroke="white" stroke-width="1.5" stroke-linecap="round" stroke-linejoin="round"/>
<path d="M155.403 21.1821L157.767 23.5461C157.945 23.716 158.087 23.9198 158.184 24.1453C158.282 24.3709 158.334 24.6137 158.337 24.8595C158.339 25.1054 158.293 25.3493 158.2 25.5769C158.107 25.8046 157.97 26.0114 157.796 26.1852C157.622 26.3591 157.416 26.4965 157.188 26.5893C156.96 26.6821 156.716 26.7285 156.47 26.7258C156.225 26.7231 155.982 26.6713 155.756 26.5735C155.531 26.4756 155.327 26.3337 155.157 26.1561L152.792 23.7921C152.458 23.4434 152.275 22.978 152.28 22.4955C152.285 22.013 152.479 21.5518 152.821 21.2106C153.162 20.8694 153.623 20.6754 154.105 20.67C154.588 20.6647 155.054 20.8485 155.403 21.1821Z" fill="white" stroke="white" stroke-width="1.5" stroke-linecap="round" stroke-linejoin="round"/>
<path d="M148.781 30.116C148.643 29.9727 148.477 29.8585 148.294 29.7799C148.111 29.7012 147.914 29.6599 147.715 29.6581C147.516 29.6564 147.318 29.6944 147.134 29.7698C146.95 29.8452 146.782 29.9566 146.641 30.0974C146.501 30.2383 146.389 30.4057 146.314 30.5901C146.238 30.7744 146.2 30.9719 146.202 31.1711C146.204 31.3703 146.245 31.5671 146.324 31.7501C146.402 31.9331 146.517 32.0986 146.66 32.237C146.943 32.5103 147.322 32.6614 147.715 32.658C148.108 32.6546 148.485 32.4969 148.763 32.2187C149.041 31.9406 149.199 31.5644 149.202 31.1711C149.205 30.7778 149.054 30.3989 148.781 30.116Z" stroke="white" stroke-width="1.5" stroke-linecap="round" stroke-linejoin="round"/>
<defs>
<clipPath id="clip0_2293_1999">
<rect width="24" height="24" fill="white" transform="translate(188 41)"/>
</clipPath>
</defs>
</svg>
